<?xml version="1.0" encoding="UTF-8"?>
<svg id="uuid-e47f5b9c-6d2e-4807-9553-095af488edde" data-name="Layer 1" xmlns="http://www.w3.org/2000/svg" xmlns:xlink="http://www.w3.org/1999/xlink" viewBox="0 0 1000 1000">
  <defs>
    <style>
      .uuid-c1df00b2-4153-40fa-ba4e-a64af267b556, .uuid-5b097ff1-585a-4a0e-8713-b7ec60d8a9b0 {
        fill: #fff;
      }

      .uuid-c1df00b2-4153-40fa-ba4e-a64af267b556, .uuid-78dfd1c2-88b8-4d7d-b606-d4de3a963ac3 {
        fill-rule: evenodd;
      }

      .uuid-9ce08095-7046-49e6-ab0e-c77f80f34d0f {
        mask: url(#uuid-8b389b45-1471-4c08-a14a-c20e9e723941);
      }

      .uuid-684f6b53-b131-4e33-b2f0-7ce330eff873 {
        filter: url(#uuid-a3b09b1a-140c-492b-800e-27fd77a3f6dc);
      }

      .uuid-78dfd1c2-88b8-4d7d-b606-d4de3a963ac3, .uuid-5caa680e-079d-4a2b-afc3-3eee903566c7 {
        fill: #ea703a;
      }

      .uuid-c493dc37-c03c-428e-a66d-d70fd0f683c3 {
        mask: url(#uuid-98999bcd-b800-41be-a6d5-0fdd3a6b761e);
      }
    </style>
    <mask id="uuid-8b389b45-1471-4c08-a14a-c20e9e723941" data-name="mask" x="135.7" y="426.42" width="111.79" height="111.89" maskUnits="userSpaceOnUse">
      <g id="uuid-df817013-e4ab-406c-9919-1d07fb52d975" data-name="mask-2">
        <polygon id="uuid-971b9d14-8a06-4bd5-9e3a-799d32a8d9df" data-name="path-1" class="uuid-c1df00b2-4153-40fa-ba4e-a64af267b556" points="135.7 426.42 247.49 426.42 247.49 538.31 135.7 538.31 135.7 426.42"/>
      </g>
    </mask>
    <mask id="uuid-98999bcd-b800-41be-a6d5-0fdd3a6b761e" data-name="mask-1" x="91.57" y="343.97" width="107.42" height="150.67" maskUnits="userSpaceOnUse">
      <g id="uuid-b7dacd29-293f-4983-a652-62fbf8a97fe6" data-name="mask-4">
        <polygon id="uuid-81366081-09e2-41c3-969a-7da804e3a70d" data-name="path-3" class="uuid-c1df00b2-4153-40fa-ba4e-a64af267b556" points="91.57 343.97 198.99 343.97 198.99 494.64 91.57 494.64 91.57 343.97"/>
      </g>
    </mask>
    <filter id="uuid-a3b09b1a-140c-492b-800e-27fd77a3f6dc" data-name="drop-shadow-1" x="176" y="382" width="710" height="342" filterUnits="userSpaceOnUse">
      <feOffset dx="-27" dy="27"/>
      <feGaussianBlur result="uuid-55c2a0a6-4cdc-49ae-9828-df0df57635f0" stdDeviation="16"/>
      <feFlood flood-color="#000" flood-opacity=".75"/>
      <feComposite in2="uuid-55c2a0a6-4cdc-49ae-9828-df0df57635f0" operator="in"/>
      <feComposite in="SourceGraphic"/>
    </filter>
  </defs>
  <g id="uuid-97e05f07-5e23-4230-a31c-8baf0fea9edf" data-name="Logo">
    <g id="uuid-9123b58d-d5d8-463c-a8a2-35f25e25b30c" data-name="Group-4">
      <g id="uuid-65d89f1e-fd77-42e0-926b-a20c7b574878" data-name="Group-3">
        <g class="uuid-9ce08095-7046-49e6-ab0e-c77f80f34d0f">
          <path id="uuid-86966a71-8962-4e69-9418-fc9d8cf48e6e" data-name="Fill-1" class="uuid-c1df00b2-4153-40fa-ba4e-a64af267b556" d="M193.41,533.6c.92-.93,1.87-2,2.81-3.23,1.36-1.8,2.38-3.53,3.14-5.03,2.51.41,6.06.7,10.23.12,3.43-.48,6.25-1.41,8.34-2.27-3.52.46-8.24.72-13.73.03-5.03-.64-9.2-1.89-12.35-3.08v-12.26c0-.81,0-1.62,0-2.43-7.29-2.05-16.08-5.16-25.54-9.99-8.6-4.39-15.69-9.13-21.31-13.44.78-2.54,1.72-5.26,2.86-8.1,1.37-3.41,2.84-6.5,4.28-9.24-2.49,3.6-5.17,8.12-7.5,13.57-1.38,3.22-2.42,6.28-3.23,9.08l-.84-.3c-.14-1.53-.21-3.08-.21-4.65,0-16.32,7.66-30.88,19.56-40.27-.13.57-.26,1.16-.36,1.79-.62,3.83-.3,7.14.16,9.52.06-2.52.5-6.77,2.71-11.43.48-1,.99-1.92,1.51-2.76,7.98-5.14,17.47-8.12,27.64-8.12,2.23,0,4.42.14,6.57.42-.27.19-.54.4-.8.63-.28.24-1.52,1.32-2.64,3.14-1.78,2.89-5.97,11.96-11.02,24.39-2.21-.72-4.72-1.38-7.5-1.85-6.24-1.06-11.7-.84-15.87-.31,5.32.88,11.53,2.32,18.28,4.72,4.91,1.75,9.25,3.7,12.99,5.63v14.5c.08,1.31.16,2.61.25,3.92,7.2,2.74,15.27,5.41,24.17,7.76,7.77,2.05,15.11,3.56,21.89,4.69-.35,1.56-.83,3.26-1.46,5.06-1.13,3.2-2.48,5.9-3.77,8.09,2.01-2.76,4.43-6.71,6.31-11.81,1.54-4.19,2.28-7.98,2.64-10.98.3-.32.59-.64.89-.96-2.8,24.99-23.61,44.6-49.1,45.49M142.5,497.02c2,2.44,4.62,5.1,8,7.58,6.81,4.99,13.49,6.84,17.26,7.6-1.8,2.55-3.61,5.1-5.41,7.65,5.49-3.86,10.97-7.72,16.46-11.58,2.05.37,4.7.63,7.76.42,1.45-.1,2.78-.3,3.97-.53-.04,0-.07.02-.11.02-1.61,3.75-3.73,8.01-6.52,12.49-2.56,4.11-5.21,7.63-7.7,10.6-16.15-5.1-28.86-17.99-33.72-34.26M215.01,471.05c-3.49,4.16-6.97,7.7-10.22,10.7l-12.46.58c6.18-14.12,12.35-28.24,18.53-42.36,1.15.72,2.42,1.61,3.72,2.71,1.94,1.64,3.43,3.31,4.55,4.76-1.48-2.52-3.79-5.8-7.25-8.98-2.44-2.25-4.84-3.88-6.86-5.06v-.52c4.1,1.11,7.99,2.72,11.61,4.76-.56.15-1.02.35-1.36.53.72.03,1.64.09,2.69.24,4.81,2.9,9.11,6.57,12.72,10.83.59,1.08,1.05,2.11,1.42,3.03.75.58,1.68,1.39,2.63,2.44,1.99,3.11,3.66,6.44,4.96,9.95-.83-.65-1.97-1.4-3.43-2.04-1.87-.81-3.57-1.12-4.77-1.24,2.28,1.21,6.58,3.89,9.92,8.96.93,3.86,1.42,7.88,1.42,12.01,0,.52,0,1.04-.03,1.56-5.27-2.5-11.4-4.88-18.38-6.71-2.73-.72-5.37-1.29-7.9-1.74,1.3-1.97,2.74-4.57,3.89-7.79.76-2.13,1.25-4.1,1.57-5.82-1.99,2.92-4.3,6.01-6.97,9.19M191.6,426.42c-30.82,0-55.9,25.1-55.9,55.95s25.08,55.95,55.9,55.95,55.9-25.1,55.9-55.95-25.07-55.95-55.9-55.95"/>
        </g>
      </g>
      <g id="uuid-876d45ec-0139-471c-8500-111e0d8e6d5c" data-name="Group-44">
        <path id="uuid-12560a5f-0ec6-4952-95e0-46a1e50d5a83" data-name="Fill-29" class="uuid-c1df00b2-4153-40fa-ba4e-a64af267b556" d="M188.26,409.21c-1.45.59-2.95,1.05-4.48,1.36-20.25,4.12-35.88,13.25-46.88,27.39-3.49,4.48-6.39,9.34-8.72,14.56.6-6.95,2.49-15.69,7.56-24.54,1.26-2.2,15.06-25.73,30.31-24.2,4.22.43,5.52,2.46,14.03,4.24,2.96.62,5.71.98,8.18,1.19"/>
        <g id="uuid-48460cca-d1c8-466b-bb85-fb846841104f" data-name="Group-33">
          <g class="uuid-c493dc37-c03c-428e-a66d-d70fd0f683c3">
            <path id="uuid-706952de-be17-4810-8bd0-f0e45693074f" data-name="Fill-31" class="uuid-78dfd1c2-88b8-4d7d-b606-d4de3a963ac3" d="M198.99,398.16c.02.5-.12.99-.4,1.39-1.09,1.59-2.29,3.08-3.59,4.46-.38.4-.91.88-1.59,1.43h0c-1.83,1.47-3.82,2.66-5.93,3.55-2.42-.2-5.12-.57-8.02-1.2-8.34-1.8-9.62-3.85-13.75-4.28-14.95-1.55-28.47,22.18-29.71,24.4-4.96,8.92-6.82,17.74-7.41,24.75-4.97,11.47-7.25,24.71-6.84,39.72,0,.02,0,.04,0,.07,0,1.18-.87,2.15-1.96,2.18-.46.01-.91-.15-1.27-.45-15.71-12.94-24.59-30.54-26.65-52.81-2.13-23.06,7.13-43.3,27.8-60.72h0c1.36-1.14,2.43-2.64,3.13-4.36,2.86-7.09,6.07-12.77,9.62-17.06,5.01-6.03,11.09-11.04,18.24-15.04h0c.99-.55,2.21-.13,2.72.95.29.6.3,1.31.04,1.92-2.7,6.44-4.2,10.59-4.5,12.43-.38,2.31-.55,5.82-.5,10.52,3.96-4.6,7-7.85,9.11-9.75,1.62-1.45,4.43-2.91,8.43-4.37.21-.08.43-.11.64-.11.84,0,1.63.58,1.92,1.5.15.47.14.97,0,1.44h0c-3.24,9.88-3.93,17.64-2.07,23.28,2.05,6.24,10.99,9.75,18.56,12.47,3.36,1.21,7.33,1.73,11.91,1.57.02,0,.04,0,.07,0,1.08,0,1.98.94,2.02,2.12"/>
          </g>
        </g>
        <g id="uuid-d6404a00-6913-44b4-a3ce-71b2fdbaaa43" data-name="Group-5">
          <path id="uuid-5a8ca322-ef38-44a3-a229-8eb19eefb2ff" data-name="Fill-40" class="uuid-c1df00b2-4153-40fa-ba4e-a64af267b556" d="M177.92,521.04c1.46.43,6.39,2.05,10.66,6.48.96,1,1.89,2.14,2.74,3.44.17.26.33.52.49.79,3.37,5.66,3.41,11.18,3.3,13.44-1.39-1.36-6.72-6.26-15.15-6.83-7.25-.49-12.55,2.51-14.35,3.64,1.98,2.95,4.36,7.11,6.19,12.42.14.41.28.82.42,1.25,1.11,3.48,1.76,6.76,2.11,9.68-3.64-3.29-7.37-6.48-11.24-9.46-8.38-6.43-20.79-8.45-31.23-6.68-6.62,1.12-7.04.5-4.87-6.23,4.97-15.46,17.44-28.14,30.87-33.65,6.21-2.55,14.34-3.87,21.2-3.81,7.93.06,16.06,3.39,23.82,7.37.79.41,1.58.83,2.36,1.27-3.52-.04-7.6.25-12.06,1.2-.34.07-.68.15-1.02.23-6.07,1.41-10.88,3.61-14.25,5.47Z"/>
          <path id="uuid-a86bf566-f9d1-4d46-9cc8-83c887e3f1e1" data-name="Fill-42" class="uuid-78dfd1c2-88b8-4d7d-b606-d4de3a963ac3" d="M217.59,585.24c-13.69.76-27.31-5.02-39.02-15.99-1.4-1.31-2.81-2.62-4.24-3.91-.36-2.92-1.01-6.19-2.11-9.68-.13-.42-.27-.84-.42-1.25-1.83-5.31-4.21-9.47-6.19-12.42,1.8-1.13,7.1-4.13,14.35-3.64,8.43.57,13.76,5.47,15.15,6.83.11-2.26.07-7.77-3.3-13.44-.16-.27-.33-.53-.49-.79-.85-1.3-1.78-2.44-2.74-3.44-4.27-4.43-9.21-6.05-10.66-6.48,3.37-1.86,8.18-4.06,14.25-5.47.33-.08.67-.15,1.01-.23,4.46-.95,8.55-1.24,12.06-1.2,1.65.92,3.28,1.88,4.91,2.86,1.43.85,2.86,1.71,4.3,2.54,2.06,1.18,4.14,2.32,6.29,3.31.36.16.71.32,1.07.47,2.83,1.18,5.7,1.9,8.54,2.2,15.3,1.62,31.04-8.98,31.04-25.15,0-2.87-2.15-10.46,1.37-11.61,3.77-1.23,5.08,3.94,6.64,6.59,11.59,19.63,11.85,39.91,1.33,59.89-10.6,20.11-27.87,29.93-53.14,30.01Z"/>
        </g>
      </g>
    </g>
  </g>
  <g>
    <path class="uuid-5caa680e-079d-4a2b-afc3-3eee903566c7" d="M273.15,369.64l-6.68-19.41h-2.97v19.41h-11.24v-46.09l8.16-7.57h22.97v34.1h-6.09l7.12,19.56h-11.28ZM272.14,340.18v-13.99h-8.65v13.99h8.65Z"/>
    <path class="uuid-5caa680e-079d-4a2b-afc3-3eee903566c7" d="M288.58,315.98h26.05v10.21h-14.92v10.35h14.18v10.02h-14.03v12.91h15.14v10.17h-26.42v-53.66Z"/>
    <path class="uuid-5caa680e-079d-4a2b-afc3-3eee903566c7" d="M341.17,346.78v-30.8h10.61v53.66h-11.13l-10.98-30.8v30.8h-10.54v-53.66h11.13l10.91,30.8Z"/>
    <path class="uuid-5caa680e-079d-4a2b-afc3-3eee903566c7" d="M368.33,369.64h-11.28v-45.16l8.65-8.5h23.45v53.66h-11.24v-17.63h-9.57v17.63ZM377.91,341.81v-15.62h-9.57v15.62h9.57Z"/>
    <path class="uuid-5caa680e-079d-4a2b-afc3-3eee903566c7" d="M414.27,369.64l-6.68-19.41h-2.97v19.41h-11.24v-46.09l8.16-7.57h22.97v34.1h-6.09l7.12,19.56h-11.28ZM413.27,340.18v-13.99h-8.65v13.99h8.65Z"/>
    <path class="uuid-5caa680e-079d-4a2b-afc3-3eee903566c7" d="M429.71,315.98h23.08l8.65,8.5v37.74l-7.53,7.42h-24.2v-53.66ZM450.16,359.48v-33.29h-9.2v33.29h9.2Z"/>
    <path class="uuid-5caa680e-079d-4a2b-afc3-3eee903566c7" d="M483.26,315.98h23.08l8.65,8.5v37.74l-7.53,7.42h-24.2v-53.66ZM503.71,359.48v-33.29h-9.2v33.29h9.2Z"/>
    <path class="uuid-5caa680e-079d-4a2b-afc3-3eee903566c7" d="M519.48,315.98h26.05v10.21h-14.92v10.35h14.18v10.02h-14.03v12.91h15.14v10.17h-26.42v-53.66Z"/>
    <path class="uuid-5caa680e-079d-4a2b-afc3-3eee903566c7" d="M579.52,369.64h-29.5v-16.7h11.24v6.53h6.98v-8.54l-17.85-13.47v-21.49h28.8v15.96h-10.21v-5.71h-7.35v7.01l17.89,13.43v22.97Z"/>
    <path class="uuid-5caa680e-079d-4a2b-afc3-3eee903566c7" d="M631.21,369.64h-29.5v-16.7h11.24v6.53h6.98v-8.54l-17.85-13.47v-21.49h28.8v15.96h-10.21v-5.71h-7.35v7.01l17.89,13.43v22.97Z"/>
    <path class="uuid-5caa680e-079d-4a2b-afc3-3eee903566c7" d="M667.8,369.64h-31.73v-53.66h11.24v43.49h9.2v-43.49h11.28v53.66Z"/>
    <path class="uuid-5caa680e-079d-4a2b-afc3-3eee903566c7" d="M693.71,369.64l-6.68-19.41h-2.97v19.41h-11.24v-46.09l8.16-7.57h22.97v34.1h-6.09l7.12,19.56h-11.28ZM692.7,340.18v-13.99h-8.65v13.99h8.65Z"/>
    <path class="uuid-5caa680e-079d-4a2b-afc3-3eee903566c7" d="M720.39,346.56v23.08h-11.24v-46.24l7.42-7.42h18.22v10.21h-14.4v10.35h13.29v10.02h-13.29Z"/>
    <path class="uuid-5caa680e-079d-4a2b-afc3-3eee903566c7" d="M750.74,369.64h-11.28v-45.16l8.65-8.5h23.45v53.66h-11.24v-17.63h-9.57v17.63ZM760.32,341.81v-15.62h-9.57v15.62h9.57Z"/>
    <path class="uuid-5caa680e-079d-4a2b-afc3-3eee903566c7" d="M796.13,359.48v-6.53h11.28v9.28l-7.42,7.42h-24.2v-46.28l8.02-7.38h23.6v20.26h-11.28v-10.06h-9.05v33.29h9.05Z"/>
    <path class="uuid-5caa680e-079d-4a2b-afc3-3eee903566c7" d="M811.9,315.98h26.05v10.21h-14.92v10.35h14.18v10.02h-14.03v12.91h15.14v10.17h-26.42v-53.66Z"/>
    <path class="uuid-5caa680e-079d-4a2b-afc3-3eee903566c7" d="M871.94,369.64h-29.5v-16.7h11.24v6.53h6.98v-8.54l-17.85-13.47v-21.49h28.8v15.96h-10.21v-5.71h-7.35v7.01l17.89,13.43v22.97Z"/>
  </g>
  <g class="uuid-684f6b53-b131-4e33-b2f0-7ce330eff873">
    <path class="uuid-5b097ff1-585a-4a0e-8713-b7ec60d8a9b0" d="M252.59,455.45c0-31.1,21.6-52.27,53.28-52.27,11.38,0,22.9,3.74,31.82,10.51l-18.86,31.39c-3.6-3.02-8.06-4.75-12.82-4.75-9.22,0-15.84,6.34-15.84,14.83,0,9.07,6.05,15.12,15.7,15.12,5.47,0,10.08-1.73,14.26-5.18l17.57,31.68c-8.06,6.48-19.87,10.66-33.26,10.66-30.53,0-51.84-20.74-51.84-51.98Z"/>
    <path class="uuid-5b097ff1-585a-4a0e-8713-b7ec60d8a9b0" d="M326.46,455.16c0-29.95,22.03-51.98,52.27-51.98s51.98,22.03,51.98,51.98-22.03,52.27-51.84,52.27-52.42-22.03-52.42-52.27Z"/>
    <path class="uuid-5b097ff1-585a-4a0e-8713-b7ec60d8a9b0" d="M429.56,457.75v-52.85h36.58v65.66h10.8v-65.66h36.57v52.85c0,17.14,0,49.53-41.9,49.53s-42.05-32.4-42.05-49.53Z"/>
    <path class="uuid-5b097ff1-585a-4a0e-8713-b7ec60d8a9b0" d="M517.4,404.91h36c11.95,0,44.06,1.44,44.06,35.57,0,22.61-14.4,33.84-44.06,34.7v30.53h-36v-100.8Z"/>
    <path class="uuid-5b097ff1-585a-4a0e-8713-b7ec60d8a9b0" d="M597.32,404.91h77.04v35.42h-41.62v11.38h33.84v6.62h-33.84v11.95h41.62v35.42h-77.04v-100.8Z"/>
    <path class="uuid-5b097ff1-585a-4a0e-8713-b7ec60d8a9b0" d="M705.03,404.91h16.99c11.95,0,59.61,0,59.61,50.11s-44.21,50.69-53.71,50.69h-22.9v-100.8Z"/>
    <path class="uuid-5b097ff1-585a-4a0e-8713-b7ec60d8a9b0" d="M780.49,457.75v-52.85h36.58v65.66h10.8v-65.66h36.58v52.85c0,17.14,0,49.53-41.9,49.53s-42.05-32.4-42.05-49.53Z"/>
    <path class="uuid-5b097ff1-585a-4a0e-8713-b7ec60d8a9b0" d="M278.29,509.49l53.3,41.77,53.3-41.77,26.46,137.21h-159.51l26.46-137.21Z"/>
    <path class="uuid-5b097ff1-585a-4a0e-8713-b7ec60d8a9b0" d="M400.95,580.37c0-39.31,28.92-68.23,68.6-68.23s68.23,28.92,68.23,68.23-28.92,68.6-68.04,68.6-68.79-28.92-68.79-68.6Z"/>
    <path class="uuid-5b097ff1-585a-4a0e-8713-b7ec60d8a9b0" d="M537.97,511l68.23,67.28v-63.88h47.25v132.3h-115.48v-135.7Z"/>
    <path class="uuid-5b097ff1-585a-4a0e-8713-b7ec60d8a9b0" d="M660.25,514.41h22.3c15.69,0,78.24,0,78.24,65.77s-58.02,66.53-70.5,66.53h-30.05v-132.3Z"/>
    <path class="uuid-5b097ff1-585a-4a0e-8713-b7ec60d8a9b0" d="M760.99,514.41h101.11v46.49h-54.62v14.93h44.41v8.69h-44.41v15.69h54.62v46.49h-101.11v-132.3Z"/>
  </g>
  <g>
    <path class="uuid-5caa680e-079d-4a2b-afc3-3eee903566c7" d="M326.77,579.96l-13.47-8.29c3.55-9.47,11.03-15.39,20.72-15.39,10.88,0,18.43,7.18,18.43,16.95,0,7.18-5.25,13.62-10.95,17.24h11.62v18.5h-41l14.65-29.01Z"/>
    <path class="uuid-5caa680e-079d-4a2b-afc3-3eee903566c7" d="M351.04,583c0-15.39,11.32-26.72,26.86-26.72s26.72,11.32,26.72,26.72-11.32,26.86-26.64,26.86-26.94-11.32-26.94-26.86Z"/>
    <path class="uuid-5caa680e-079d-4a2b-afc3-3eee903566c7" d="M414.46,579.96l-13.47-8.29c3.55-9.47,11.03-15.39,20.72-15.39,10.88,0,18.43,7.18,18.43,16.95,0,7.18-5.25,13.62-10.95,17.24h11.62v18.5h-41l14.65-29.01Z"/>
    <path class="uuid-5caa680e-079d-4a2b-afc3-3eee903566c7" d="M438.73,583.88c0-16.72,10.06-27.6,24.27-27.6,8.29,0,15.39,4.37,19.17,10.66l-10.06,8.88c7.33,2.66,11.77,8.36,11.77,15.62,0,10.58-8.95,18.28-21.17,18.28-14.43,0-23.98-10.14-23.98-25.83Z"/>
  </g>
</svg>