<?xml version="1.0" encoding="UTF-8"?>
<svg width="500px" height="500px" viewBox="0 0 500 500" version="1.1" xmlns="http://www.w3.org/2000/svg" xmlns:xlink="http://www.w3.org/1999/xlink">
    <title>AppIcon</title>
    <defs>
        <polygon id="path-1" points="0 0 217.071518 0 217.071518 304.04514 0 304.04514"></polygon>
        <polygon id="path-3" points="0 0 190.035256 0 190.035256 189.9 0 189.9"></polygon>
    </defs>
    <g id="AppIcon" stroke="none" stroke-width="1" fill="none" fill-rule="evenodd">
        <g id="Group-44" transform="translate(110, 70)">
            <path d="M186.336772,134.393614 C145.410178,142.700864 113.83743,161.124422 91.6150042,189.667722 C84.5714463,198.713013 78.947478,209.993744 74.245903,220.53228 C75.457395,206.506072 79.0316879,187.374646 89.2624559,169.527789 C91.8087021,165.085814 118.730011,116.061636 149.542056,119.161408 C158.064761,120.019595 161.99467,124.212476 179.184473,127.806563 C185.164454,129.056084 188.817325,130.821012 193.79712,131.229509 C190.887317,132.920117 188.400534,133.974819 186.336772,134.393614 Z" id="Fill-29" fill="#FFFFFF"></path>
            <g id="Group-5">
                <g id="Group-33">
                    <mask id="mask-2" fill="white">
                        <use xlink:href="#path-1"></use>
                    </mask>
                    <g id="Clip-32"></g>
                    <path d="M216.261365,112.169078 C214.051881,115.374665 211.628352,118.376008 208.997684,121.176569 C208.231269,121.993543 207.157598,122.955912 205.77667,124.067135 L205.773218,124.067135 C202.082688,127.030399 198.053831,129.43632 193.79712,131.229509 C188.91554,130.81756 183.460875,130.076745 177.598836,128.816665 C160.748062,125.192206 158.158822,121.045022 149.804208,120.179583 C119.599862,117.053617 92.2643936,164.943555 89.7683664,169.423068 C79.7393773,187.42074 75.9901579,205.214168 74.8025599,219.358905 C64.7563091,242.50767 60.1509145,269.225506 60.9863759,299.512414 C60.9863759,299.557416 60.9898282,299.598957 60.9898282,299.64396 C60.9898282,302.02911 59.239502,303.985003 57.0334696,304.043853 C56.1047956,304.068085 55.1968355,303.749603 54.458039,303.140334 C22.7208627,277.024844 4.77225187,241.503761 0.605301819,196.577086 C-3.70664566,150.037232 15.0187372,109.19543 56.7883549,74.0516783 L56.7918073,74.05514 C59.5398539,71.7426867 61.711363,68.7171116 63.1095526,65.2588169 C68.8852837,50.9513775 75.365288,39.4791167 82.5461133,30.8420344 C92.6683151,18.6739605 104.955121,8.55870815 119.409985,0.489353891 C121.408878,-0.625331684 123.866929,0.233183914 124.902625,2.41062872 C125.479163,3.61878171 125.510234,5.04502537 124.992386,6.28087242 C119.534268,19.2866914 116.499679,27.6468332 115.892071,31.3578361 C115.125656,36.0277455 114.787328,43.1035757 114.873636,52.5887883 C122.876114,43.3008958 129.010886,36.7443291 133.274501,32.9121647 C136.540396,29.9835188 142.219462,27.0444876 150.308247,24.0950711 C150.736335,23.939292 151.171327,23.8665951 151.599415,23.8665951 C153.304861,23.8665951 154.89638,25.0366688 155.47637,26.8887085 C155.769817,27.8303063 155.762913,28.8515244 155.459108,29.7896604 L155.455656,29.7861987 C148.916962,49.7293775 147.518773,65.3869019 151.26454,76.7622336 C155.410776,89.3526417 173.476766,96.4284719 188.777447,101.918818 C195.564708,104.352432 203.587899,105.408268 212.847021,105.079401 C212.891901,105.079401 212.936781,105.075939 212.981662,105.075939 C215.170432,105.075939 216.986353,106.966059 217.069208,109.361594 C217.100279,110.368965 216.817189,111.362489 216.261365,112.169078 Z" id="Fill-31" fill="#EA703A" mask="url(#mask-2)"></path>
                </g>
                <g id="Group-3" transform="translate(90.9647, 170.1)">
                    <mask id="mask-4" fill="white">
                        <use xlink:href="#path-3"></use>
                    </mask>
                    <g id="Clip-2"></g>
                    <path d="M98.091911,181.911336 C99.6589299,180.333543 101.277522,178.513929 102.863384,176.428705 C105.183167,173.378175 106.912839,170.444591 108.201166,167.894553 C112.459887,168.584342 118.494894,169.080871 125.593092,168.089795 C131.416849,167.276122 136.2151,165.704276 139.769654,164.236493 C133.781262,165.019443 125.755745,165.466418 116.427024,164.287038 C107.884787,163.207757 100.779646,161.083882 95.4329378,159.05515 L95.4329378,138.246526 C95.4329378,136.873886 95.4339296,135.501247 95.4349214,134.128607 C83.0396036,130.651914 68.1092857,125.372454 52.020564,117.176258 C37.407617,109.732289 25.3554565,101.673853 15.8016002,94.3696261 C17.1216649,90.0554739 18.7204209,85.4459812 20.6682848,80.6184519 C23.0039364,74.8256148 25.4893474,69.5937266 27.9509555,64.9336891 C23.7170292,71.0456524 19.1677155,78.7155867 15.2085134,87.9583579 C12.8649275,93.4310775 11.0866586,98.6193584 9.72493904,103.364628 L8.29676993,102.849269 C8.0617171,100.246705 7.93377695,97.6134166 7.93377695,94.9494054 C7.93377695,67.2567703 20.947968,42.5442997 41.1833391,26.5949197 C40.9572123,27.5651827 40.746954,28.5691423 40.5753754,29.6295932 C39.5211089,36.1340225 40.0705573,41.7544124 40.8500996,45.7940366 C40.9601876,41.513581 41.7060093,34.3074702 45.4628875,26.3967046 C46.2711915,24.6930456 47.1399944,23.1439944 48.0286329,21.7138722 C61.5932641,12.9924068 77.7246326,7.92801033 95.018372,7.92801033 C98.8020284,7.92801033 102.529153,8.17181494 106.187845,8.64158478 C105.732616,8.97062189 105.276395,9.31749836 104.820174,9.70699108 C104.344118,10.1143232 102.243519,11.9478131 100.327392,15.0419512 C97.2945166,19.940838 90.1844163,35.3322424 81.5886235,56.4431442 C77.8357124,55.2241212 73.5690572,54.10817 68.8313045,53.3014345 C58.2321078,51.4976768 48.9390908,51.8683391 41.849818,52.7771555 C50.8849712,54.2677332 61.4563979,56.7137078 72.9293565,60.7900019 C81.2772033,63.7553001 88.6521099,67.0684659 95.018372,70.3419887 L95.018372,94.9503964 C95.1572218,97.1664415 95.2960716,99.3834777 95.4349214,101.600514 C107.671554,106.248659 121.396854,110.789767 136.516603,114.766953 C149.726175,118.241665 162.198852,120.813506 173.722391,122.719344 C173.119387,125.374436 172.317033,128.256484 171.243923,131.299086 C169.330771,136.726216 167.032808,141.307959 164.834022,145.02251 C168.24576,140.330758 172.363647,133.635051 175.553225,124.97305 C178.169551,117.868029 179.427134,111.433966 180.043032,106.337855 C180.545866,105.791773 181.048701,105.246681 181.551535,104.700598 C176.796922,147.111698 141.419983,180.400937 98.091911,181.911336 M11.5646986,119.82243 C14.9635427,123.960171 19.4156615,128.485422 25.1709847,132.690556 C36.7510559,141.151369 48.0960743,144.305962 54.5158928,145.597334 C51.4512799,149.922388 48.386667,154.248433 45.3220541,158.574478 C54.6487918,152.026442 63.9745378,145.478405 73.3012755,138.929377 C76.7943391,139.550782 81.29208,139.997757 86.4890287,139.636014 C88.9536122,139.463567 91.2089293,139.132548 93.2381196,138.728189 C93.1786125,138.741073 93.1191055,138.753957 93.0595984,138.766841 C90.3212825,145.139457 86.7211062,152.35647 81.9704604,159.969913 C77.612561,166.95204 73.119779,172.92228 68.8789102,177.963882 C41.4332687,169.315756 19.8173341,147.422895 11.5646986,119.82243 M134.809742,75.7443419 C128.869947,82.7998093 122.955938,88.8205937 117.430709,93.9028295 L96.2551268,94.891923 C106.75217,70.9267233 117.249213,46.9605326 127.747247,22.9943419 C129.706021,24.2094007 131.860176,25.7197999 134.072847,27.5909507 C137.372512,30.3808286 139.905529,33.2133227 141.808763,35.6711902 C139.285664,31.39569 135.3701,25.8347647 129.481878,20.4244829 C125.334237,16.6137971 121.256021,13.8407675 117.812546,11.8447412 L117.812546,10.9587196 C124.774871,12.8477097 131.393046,15.5791141 137.550042,19.0379681 C136.600904,19.2986209 135.813428,19.639551 135.234226,19.9378647 C136.466022,19.9834542 138.028082,20.098419 139.814285,20.3521343 C147.991545,25.2738159 155.295043,31.4997529 161.439145,38.7395604 C162.434897,40.5750324 163.231299,42.3203166 163.858107,43.8901804 C165.136516,44.8792738 166.708494,46.2479493 168.328078,48.02693 C171.717996,53.2984612 174.554498,58.956512 176.755267,64.919814 C175.346934,63.8236844 173.407996,62.5372682 170.926552,61.4589779 C167.742925,60.0764274 164.861792,59.5571038 162.810783,59.3549244 C166.684691,61.4034777 173.996124,65.9624256 179.68103,74.5590155 C181.258959,81.1020968 182.100984,87.9286256 182.100984,94.9494054 C182.100984,95.8334448 182.084123,96.71352 182.057345,97.591613 C173.10451,93.3527825 162.674908,89.3072118 150.811187,86.2051451 C146.16567,84.9910775 141.677847,84.0188323 137.379455,83.2448023 C139.581215,79.8979399 142.028939,75.4846801 143.993663,70.0317821 C145.293892,66.4242668 146.125007,63.0764133 146.662554,60.1527403 C143.272636,65.103163 139.346163,70.3548727 134.809742,75.7443419 M95.018372,-0.000594645373 C42.6244014,-0.000594645373 -0.000495892052,42.5938535 -0.000495892052,94.9494054 C-0.000495892052,147.305948 42.6244014,189.900396 95.018372,189.900396 C147.411351,189.900396 190.035256,147.305948 190.035256,94.9494054 C190.035256,42.5938535 147.411351,-0.000594645373 95.018372,-0.000594645373" id="Fill-1" fill="#FFFFFF" mask="url(#mask-4)"></path>
                </g>
            </g>
        </g>
    </g>
</svg>