<?xml version="1.0" encoding="UTF-8"?>
<svg width="1308px" height="500px" viewBox="0 0 1308 500" version="1.1" xmlns="http://www.w3.org/2000/svg" xmlns:xlink="http://www.w3.org/1999/xlink">
    <title>Logo + nom</title>
    <defs>
        <polygon id="path-1" points="0 0 158.042813 0 158.042813 158.179612 0 158.179612"></polygon>
        <polygon id="path-3" points="0 0 151.863987 0 151.863987 213 0 213"></polygon>
    </defs>
    <g id="Logo-+-nom" stroke="none" stroke-width="1" fill="none" fill-rule="evenodd">
        <g id="Group-6" transform="translate(118, 79)">
            <text id="Renard-des-surfaces" font-family="AldotheApache, Aldo the Apache" font-size="142" font-weight="normal" line-spacing="140" fill="#FFFFFF">
                <tspan x="354" y="138">Renard</tspan>
                <tspan x="354" y="278">des surfaces</tspan>
            </text>
            <g id="Group-4">
                <g id="Group-3" transform="translate(62.3853, 116.5534)">
                    <mask id="mask-2" fill="white">
                        <use xlink:href="#path-1"></use>
                    </mask>
                    <g id="Clip-2"></g>
                    <path d="M81.5781339,151.525353 C82.8813451,150.21111 84.2274468,148.695439 85.5463295,146.958526 C87.4755769,144.417548 88.9140582,141.973982 89.9854957,139.849896 C93.5272608,140.424464 98.5462736,140.838054 104.44949,140.012525 C109.292817,139.334766 113.283283,138.025477 116.239428,136.802868 C111.259181,137.455036 104.58476,137.82735 96.8265297,136.84497 C89.722379,135.945969 83.8133885,134.176861 79.3667989,132.487003 L79.3667989,115.154196 C79.3667989,114.010838 79.3676238,112.867481 79.3684486,111.724123 C69.0598831,108.828167 56.6430848,104.430574 43.2629,97.6034494 C31.1100432,91.4029011 21.0868644,84.6905248 13.1414002,78.606376 C14.2392319,75.0128483 15.5688373,71.1733129 17.1887783,67.1521612 C19.1312228,62.3269442 21.1982147,57.9689766 23.2454111,54.0873392 C19.7242664,59.1783766 15.9408298,65.5671455 12.6481595,73.2660289 C10.6991165,77.8246001 9.2202192,82.1462444 8.08774517,86.0988772 L6.90000838,85.6696022 C6.7045267,83.501763 6.59812528,81.3083325 6.59812528,79.0893105 C6.59812528,56.0223792 17.4213767,35.4378136 34.2501223,22.1525754 C34.062064,22.9607683 33.8872027,23.7970292 33.7445093,24.6803452 C32.8677286,30.098292 33.3246774,34.779867 33.9729837,38.1447232 C34.0645384,34.5792634 34.684801,28.5768421 37.8092086,21.9874696 C38.4814346,20.5683852 39.2039745,19.2780834 39.9430107,18.0868451 C51.2240357,10.8221899 64.6396876,6.60373668 79.0220253,6.60373668 C82.168703,6.60373668 85.2683661,6.80681681 88.3111168,7.19811756 C87.9325257,7.47219319 87.5531098,7.76112834 87.1736938,8.08556124 C86.7777816,8.42485365 85.0308187,9.9520823 83.4372719,12.5293838 C80.9149808,16.6099737 75.0018663,29.4304391 67.8531755,47.0150323 C64.7320672,45.9996316 61.1837035,45.070086 57.2435517,44.3981053 C48.4287302,42.8956426 40.7001929,43.2043904 34.8043995,43.9614005 C42.3184843,45.2029961 51.1102109,47.2404017 60.6516964,50.6358025 C67.5941829,53.1057852 73.7275237,55.8655287 79.0220253,58.592251 L79.0220253,79.090136 C79.1374998,80.9360189 79.2529742,82.7827273 79.3684486,84.6294356 C89.5450433,88.5011666 100.959689,92.2837405 113.534027,95.5965884 C124.519768,98.4908931 134.892669,100.633141 144.47622,102.220633 C143.974731,104.432225 143.307454,106.832864 142.415002,109.367238 C140.823929,113.887834 138.912828,117.704255 137.084208,120.798338 C139.921579,116.890283 143.34622,111.313009 145.998833,104.097886 C148.1747,98.1796686 149.220569,92.8203344 149.73278,88.5754642 C150.150962,88.1205978 150.569145,87.6665568 150.987327,87.2116903 C147.033153,122.538553 117.611923,150.267246 81.5781339,151.525353 M9.61778109,99.8076118 C12.4444297,103.254195 16.1470341,107.023561 20.9334484,110.52628 C30.5640142,117.573821 39.9990983,120.20148 45.3381401,121.277145 C42.7894549,124.879753 40.2407697,128.483187 37.6920845,132.086621 C45.4486656,126.632351 53.2044218,121.178081 60.9610029,115.722985 C63.8660091,116.240592 67.6065551,116.612906 71.9285973,116.311588 C73.9782681,116.167946 75.8539024,115.892219 77.5414784,115.555403 C77.4919894,115.566135 77.4425004,115.576867 77.3930113,115.587599 C75.115691,120.89575 72.1216046,126.907252 68.1707301,133.248966 C64.5464833,139.064818 60.8100613,144.037805 57.2831429,148.237271 C34.4579762,141.033705 16.4810851,122.797769 9.61778109,99.8076118 M112.114517,63.0922095 C107.174686,68.9691505 102.256301,73.9842392 97.6612447,78.2175519 L80.0505724,79.0414298 C88.7804378,59.0793131 97.5103031,39.1163708 106.240993,19.1534285 C107.870007,20.1655271 109.66151,21.4236333 111.501677,22.982232 C114.245844,25.3060962 116.352428,27.6654581 117.935252,29.71277 C115.836917,26.1514379 112.580538,21.5193946 107.683599,17.0128318 C104.234213,13.8386728 100.842565,11.5288427 97.9787993,9.86622729 L97.9787993,9.12820436 C103.769016,10.7016626 109.273021,12.9768206 114.393487,15.8579168 C113.604137,16.0750309 112.949232,16.3590129 112.467538,16.6074971 C113.491961,16.6454714 114.791049,16.7412328 116.276544,16.9525682 C123.077162,21.0521452 129.151116,26.2381184 134.260859,32.2686078 C135.088975,33.7974875 135.751304,35.251244 136.272588,36.558882 C137.335777,37.3827599 138.643113,38.5228155 139.990039,40.00464 C142.809264,44.3956288 145.168242,49.1085738 146.998511,54.0757818 C145.827271,53.1627467 144.214753,52.0912101 142.15106,51.1930345 C139.503397,50.0414216 137.107303,49.6088444 135.401581,49.4404365 C138.623317,51.1468049 144.70387,54.9442383 149.431722,62.1048769 C150.744006,67.5550193 151.444276,73.2412631 151.444276,79.0893105 C151.444276,79.8256824 151.430254,80.5587521 151.407984,81.2901708 C143.962359,77.7593833 135.288581,74.3895739 125.422118,71.8056681 C121.558674,70.7943951 117.826376,69.9845512 114.251618,69.339813 C116.082712,66.5520016 118.118361,62.875921 119.752324,58.3338604 C120.833659,55.3289348 121.524856,52.5402979 121.971907,50.1049873 C119.152682,54.2285047 115.887231,58.6029828 112.114517,63.0922095 M79.0220253,-0.0004953174 C35.4485817,-0.0004953174 -0.000412408606,35.47909 -0.000412408606,79.0893105 C-0.000412408606,122.700357 35.4485817,158.179942 79.0220253,158.179942 C122.594644,158.179942 158.042813,122.700357 158.042813,79.0893105 C158.042813,35.47909 122.594644,-0.0004953174 79.0220253,-0.0004953174" id="Fill-1" fill="#FFFFFF" mask="url(#mask-2)"></path>
                </g>
                <g id="Group-44">
                    <path d="M136.691479,92.2309163 C134.646484,93.0653905 132.527574,93.7098836 130.361851,94.1499665 C101.729465,99.9696428 79.6410604,112.876338 64.0941745,132.872457 C59.166477,139.20917 55.0567772,146.070136 51.7675391,153.452948 C52.6151031,143.626834 55.2908428,131.266034 62.4483236,118.763349 C64.2296862,115.651506 83.7384409,82.3831584 105.294654,84.5547152 C111.257168,85.1559215 113.105055,88.0369017 125.1311,90.5547533 C129.314716,91.4301096 133.207597,91.9447421 136.691479,92.2309163" id="Fill-29" fill="#FFFFFF"></path>
                    <g id="Group-33">
                        <mask id="mask-4" fill="white">
                            <use xlink:href="#path-3"></use>
                        </mask>
                        <g id="Clip-32"></g>
                        <path d="M151.862371,76.6136881 C151.884108,77.3194058 151.686057,78.0154229 151.297201,78.5804822 C149.751438,80.8261682 148.055929,82.9287705 146.215505,84.8907143 C145.679318,85.463049 144.928174,86.1372398 143.962072,86.915712 L143.959656,86.915712 C141.377749,88.9916377 138.559146,90.6771148 135.581137,91.9333409 C132.165967,91.6447484 128.349864,91.125767 124.248761,90.2430135 C112.459902,87.7038847 110.64846,84.7985588 104.803544,84.192272 C83.6724782,82.0023644 64.5484896,115.551846 62.8022603,118.689986 C55.7859447,131.298325 53.1629779,143.76358 52.3321302,153.67273 C45.3037384,169.889687 42.0817883,188.606971 42.66628,209.824581 C42.66628,209.856108 42.6686952,209.88521 42.6686952,209.916736 C42.6686952,211.587663 41.444161,212.957871 39.9008131,212.999991 C39.2511095,213.016074 38.6158975,212.792961 38.0990329,212.366135 C15.8955943,194.070827 3.33868395,169.186395 0.423471251,137.712838 C-2.59318216,105.109164 10.5071606,76.497281 39.72933,51.8771899 L39.7317452,51.8796151 C41.6542882,50.2596169 43.1734835,48.1400386 44.1516618,45.7173168 C48.1923833,35.6941848 52.7258168,27.657248 57.749547,21.6065066 C64.8310745,13.0821153 73.4269668,5.99583613 83.5396391,0.342818763 L83.5396391,0.340393616 C84.9380718,-0.438078532 86.6577333,0.163357894 87.3823097,1.68877528 C87.7856573,2.53515154 87.8073946,3.53431205 87.4451064,4.40008949 C83.6265883,13.5113663 81.5035792,19.368096 81.0784944,21.9678535 C80.5423078,25.2393766 80.3056128,30.1963768 80.3659942,36.8412793 C85.9645551,30.3346102 90.2564631,25.741382 93.2393029,23.0567444 C95.5241341,21.0050702 99.4972285,18.9461205 105.156171,16.8798953 C105.455662,16.7707637 105.759984,16.7198356 106.059476,16.7198356 C107.252612,16.7198356 108.366045,17.5395353 108.771807,18.8369888 C108.977104,19.4966288 108.972274,20.2120471 108.759731,20.8692619 L108.757316,20.8668368 C104.182823,34.8381079 103.204645,45.8070473 105.825196,53.7760799 C108.725918,62.5963391 121.364947,67.5533393 132.069356,71.3996223 C136.817748,73.1045005 142.4308,73.8441703 148.908514,73.6137814 C148.939912,73.6137814 148.97131,73.6113562 149.002709,73.6113562 C150.53398,73.6113562 151.804404,74.9354864 151.862371,76.6136881" id="Fill-31" fill="#EA703A" mask="url(#mask-4)"></path>
                    </g>
                    <g id="Group-5" transform="translate(48.4136, 203.3146)">
                        <path d="M73.6593546,47.0114283 C75.7186517,47.6263154 82.6979434,49.9150861 88.7360685,56.1728932 C90.0965341,57.5829079 91.4103375,59.1916496 92.6061649,61.0301487 C92.842337,61.393491 93.0752075,61.7629955 93.301915,62.1450441 C98.0728989,70.15134 98.1288054,77.9432836 97.9703302,81.1420607 C96.0072187,79.2164123 88.4688617,72.2878193 76.5572497,71.4836686 C66.3012632,70.7880143 58.8093482,75.0363248 56.2686827,76.6327424 C59.0703921,80.8005057 62.4278652,86.6793452 65.021576,94.1887138 C65.2234117,94.7664083 65.4190846,95.3533459 65.6085945,95.9526077 C67.1739773,100.878086 68.0902721,105.505584 68.5965123,109.635935 C63.4559731,104.989951 58.1820506,100.477551 52.6999093,96.2664334 C40.8534481,87.1701105 23.3049193,84.3221315 8.54493567,86.8283354 C-0.816546369,88.4183708 -1.40664637,87.5365338 1.65588681,78.0178888 C8.68470199,56.1572679 26.3081554,38.2379876 45.3016278,30.4429629 C54.0791728,26.8372688 65.5742582,24.9677393 75.2775624,25.0515875 C86.4934244,25.1385168 97.9857375,29.8372855 108.953322,35.4709625 C110.074534,36.048657 111.186501,36.6448377 112.289225,37.2597248 C107.319486,37.209988 101.542185,37.6199861 95.2339918,38.9615578 C94.7493218,39.0641123 94.2710349,39.1728289 93.7989109,39.2815456 C85.2201202,41.2754169 78.420874,44.3839636 73.6593546,47.0114283 Z" id="Fill-40" fill="#FFFFFF"></path>
                        <path d="M129.745135,137.769614 C110.391352,138.838074 91.1401373,130.667163 74.5880633,115.15766 C72.606463,113.303756 70.6123168,111.458875 68.5966003,109.636001 C68.0903601,105.50565 67.1740653,100.878152 65.6084624,95.9526737 C65.4191726,95.3531919 65.2232797,94.7662542 65.0214439,94.1887798 C62.4279533,86.6794112 59.07026,80.8003517 56.2687707,76.6325883 C58.8094363,75.0363908 66.3011311,70.7878603 76.5573377,71.4835145 C88.4689498,72.2878854 96.0073068,79.2164783 97.9704183,81.1421267 C98.1286733,77.9433497 98.0727668,70.1511859 93.3020031,62.1451101 C93.0752955,61.7630615 92.8422049,61.3935571 92.6062529,61.0299946 C91.4104255,59.1914956 90.096402,57.582974 88.7361566,56.1729592 C82.6980315,49.9151521 75.7187398,47.6263814 73.6594426,47.0112743 C78.420962,44.3840297 85.2199881,41.2752629 93.7989989,39.2816116 C94.2711229,39.172895 94.7494099,39.0641784 95.2338597,38.9616238 C101.542273,37.6200521 107.319574,37.210054 112.289092,37.2597908 C114.627922,38.5580079 116.932636,39.924448 119.234268,41.2970502 C121.256367,42.5019559 123.275165,43.7132438 125.309591,44.8871191 C128.220032,46.5610027 131.164589,48.1605013 134.20225,49.5641339 C134.705409,49.7971924 135.208568,50.0177066 135.711727,50.2287577 C139.712345,51.9026413 143.771951,52.9213643 147.778732,53.3436865 C169.415439,55.6293762 191.660735,40.6535188 191.660735,17.7845531 C191.660735,13.726671 188.619992,2.99557344 193.595893,1.36504441 C198.919559,-0.380143221 200.780102,6.93666047 202.98863,10.6757195 C219.366601,38.427504 219.742539,67.098538 204.86458,95.3377867 C189.884272,123.772681 165.461263,137.648573 129.745135,137.769614 Z" id="Fill-42" fill="#EA703A"></path>
                    </g>
                </g>
            </g>
        </g>
    </g>
</svg>