<?xml version="1.0" encoding="UTF-8"?>
<svg width="42px" height="53px" viewBox="0 0 42 53" version="1.1" xmlns="http://www.w3.org/2000/svg" xmlns:xlink="http://www.w3.org/1999/xlink">
    <title>logo_little</title>
    <defs>
        <polygon id="path-1" points="0 0 19.0589707 0 19.0589707 19.0008841 0 19.0008841"></polygon>
    </defs>
    <g id="📱Application-iOS" stroke="none" stroke-width="1" fill="none" fill-rule="evenodd">
        <g id="Exports" transform="translate(-418, -720)">
            <g id="logo_little" transform="translate(419, 720)">
                <g id="Group">
                    <path d="M32.590423,22.8582195 C35.6207425,24.257824 38.7274332,27.9465558 37.3532311,32.5159962 C35.979029,37.0854366 29.8231513,43.5107141 28.8007874,45.2029707 C28.2126423,46.1764914 27.9903097,47.7393454 28.1337895,49.8915328 L28.1611011,50.2556866 C28.1804872,50.4900375 28.0062238,50.6957319 27.7718729,50.715118 C27.7018613,50.7209096 27.6315045,50.7092879 27.5670744,50.6812891 C22.9515776,48.6444768 20.5859218,45.9718648 20.4705117,42.6625224 C20.3964695,40.5393894 20.6942029,38.2940386 21.7903828,36.6765711 C23.3769991,34.3354405 25.8413961,33.2561441 27.0163441,32.5159962 C29.1928462,31.1449285 30.0958292,29.3252709 30.8338142,27.1593137 C31.5717993,24.9933566 29.6074102,21.4804644 32.590423,22.8582195 Z M25.5004916,36.5719681 C23.5447598,38.6265758 22.6449502,40.5598352 22.8010627,42.3717464 C22.9571752,44.1836576 23.9414665,45.7796268 25.7539365,47.159654 C26.1628412,45.308609 26.7095132,43.900732 27.3939525,42.9360231 C28.0783918,41.9713141 29.4403985,40.6889313 31.4799726,39.0888748 C29.8797694,39.1653904 28.8058699,39.2651642 28.258274,39.3881964 C26.2508344,39.8392217 25.5004916,41.2950308 25.5004916,41.2950308 C25.5004916,41.2950308 25.1259266,40.154791 25.2098948,39.1888066 C25.2650621,38.5541523 25.3619277,37.6818728 25.5004916,36.5719681 Z" id="Combined-Shape" stroke="#EF7A4C" stroke-width="0.5677056" fill="#EF7A4C" stroke-linecap="square" transform="translate(29.0739, 36.6317) rotate(-10) translate(-29.0739, -36.6317)"></path>
                    <path d="M26.2825562,37.0808867 C24.4467666,39.0099459 23.6026262,40.8255324 23.7501348,42.5276461 C23.8976434,44.2297598 24.822861,45.7294317 26.5257874,47.0266616 C27.0510126,45.3232469 27.6347967,44.0186024 28.2771397,43.1127283 C28.9194827,42.2068541 30.1269844,40.98531 31.8996448,39.4480958 C30.3967918,39.5191882 29.388248,39.6123861 28.8740134,39.7276895 C26.9888731,40.150382 26.2848754,41.5175438 26.2848754,41.5175438 C26.2848754,41.5175438 25.9325289,40.4462646 26.0109164,39.5388984 C26.0624172,38.9427563 26.1529638,38.1234191 26.2825562,37.0808867 Z" id="Line-3" fill="#FFFFFF" transform="translate(27.8167, 42.0538) rotate(-10) translate(-27.8167, -42.0538)"></path>
                    <path d="M16.670292,3.36300342 C15.9300715,5.24201897 15.7380723,6.72798061 16.0942944,7.82088832 C16.488805,9.03126683 18.3508638,9.75452725 19.9294766,10.3193554 C20.6282596,10.5693801 21.4590921,10.6918089 22.421974,10.6866416 L22.421974,10.6866397 C22.6571227,10.6855273 22.8486502,10.8752513 22.8497625,11.1104 C22.8502279,11.2087708 22.8166165,11.3042679 22.7546407,11.3806618 C22.5179086,11.6767315 22.2593789,11.9525655 21.9800453,12.2089701 C21.9037973,12.2789593 21.7997867,12.3601651 21.6680134,12.4525875 L21.6674559,12.4517947 C21.001716,12.9199863 20.2386444,13.2314304 19.4354268,13.3627868 C15.2266936,14.0498096 11.9435409,15.7342631 9.58597557,18.4161899 C7.2117508,21.1170682 6.02203001,24.5733503 6.01681321,28.7850361 L6.01680625,28.7850361 C6.01541018,29.0201833 5.82365395,29.209676 5.58850674,29.2082799 C5.49245755,29.2077097 5.39942291,29.17468 5.32451663,29.1145566 C2.09540623,26.5385116 0.330189008,23.1065062 0.0303384998,18.8167044 C-0.28002448,14.3765064 1.79087348,10.5412435 6.24303237,7.31091582 L6.24435344,7.3127403 C6.53972559,7.09886716 6.77700646,6.81461148 6.93465721,6.48577616 C7.58244667,5.13872707 8.2926821,4.06277682 9.06812318,3.25924849 C10.1590768,2.1287794 11.4697612,1.19930173 13.0001764,0.470815477 L12.9998652,0.470164433 C13.2120258,0.368754186 13.4662252,0.458535094 13.5676354,0.670695702 C13.6235375,0.787648484 13.6231175,0.923697538 13.5664944,1.04030295 C12.9578902,2.26159488 12.617193,3.0483794 12.5427328,3.39984557 C12.4489477,3.84252866 12.392418,4.51550187 12.3731435,5.4187652 C13.2351314,4.5564228 13.8941561,3.9487715 14.3502176,3.59581129 C14.6989442,3.32592081 15.2986265,3.061919 16.1492643,2.80380583 L16.1492769,2.80384718 C16.3740887,2.73488462 16.6122398,2.86122536 16.6812024,3.08603712 C16.7091065,3.17700189 16.7057375,3.27469198 16.6716331,3.36351832 Z" id="Line" stroke="#EF7A4C" stroke-width="0.5677056" fill="#EF7A4C" stroke-linecap="square"></path>
                </g>
                <path d="M15.9087365,11.6510328 C13.2780064,11.0013748 11.8469533,10.7006666 10.68821,10.6568303 C7.20517158,10.5250355 4.7575682,13.5588963 3.34096399,17.0806634 C1.42534435,21.8431077 4.88995439,27.8129816 5.29199308,26.0415818 C5.69403176,24.2701821 5.8951413,20.231526 9.98630113,16.3863301 C13.4919955,13.0913758 18.8781937,12.8595654 19.3450871,12.3003297 C19.5254622,12.0842799 16.6418454,11.8320738 15.9087365,11.6510328 Z" id="Fill-46" fill="#FEFEFE"></path>
                <g id="Group-3" transform="translate(8.4547, 16.1436)">
                    <mask id="mask-2" fill="white">
                        <use xlink:href="#path-1"></use>
                    </mask>
                    <g id="Clip-2"></g>
                    <path d="M13.5544026,1.84109014 C12.3719605,1.19543942 11.1127684,0.871568139 9.77948962,0.836811613 C9.77501052,0.854230103 9.77053142,0.871648593 9.76605232,0.889026856 C11.0288357,1.20638128 12.2916191,1.52373571 13.5544026,1.84109014 M15.1176892,16.1466988 C15.0874654,16.1565143 15.0562731,16.1639967 15.0272194,16.1764672 C13.7386106,16.7304797 12.4494368,17.2831648 11.1629666,17.8419644 C11.0324271,17.8986852 10.9181899,17.9926163 10.7963664,18.0692898 C12.4326503,17.8608714 13.8674957,17.2148988 15.1176892,16.1466988 M4.00907706,2.89251525 C3.98974833,2.88141247 3.97045995,2.87030969 3.95113122,2.85920691 C2.51063649,4.082001 1.55194766,5.60412762 1.10904133,7.44972323 C1.30886568,7.25152254 1.51345161,7.05344253 1.66057592,6.81951985 C2.38300231,5.67098565 3.09219316,4.51412437 3.80009274,3.35657922 C3.8879396,3.21292697 3.94027647,3.04771279 4.00907706,2.89251525 M1.58192938,12.8659886 C1.56514284,12.8864242 1.54835631,12.9068597 1.53156977,12.9272953 C2.34644317,14.7697531 3.63682752,16.1777947 5.43060624,17.1345646 C5.37641316,16.9636381 5.32512545,16.7830973 5.21230055,16.6575071 C4.29493242,15.6360917 3.37284308,14.6186588 2.43618658,13.614863 C2.17922343,13.3394658 1.86818827,13.1142323 1.58192938,12.8659886 M7.48163056,2.6378352 C8.08295984,3.65571061 8.67266767,4.6572939 9.26923538,5.65481422 C9.30409972,5.71314403 9.38948509,5.75972743 9.45965766,5.77597932 C10.4688675,6.00958018 11.4793283,6.23762965 12.4898294,6.46555844 C12.7236304,6.51829663 12.9874534,6.65470795 13.1852198,6.59114856 C13.3942848,6.52392848 13.5435074,6.2662716 13.7143992,6.087541 C14.2182778,5.56060151 14.7199774,5.03152996 15.2255911,4.50004476 C15.2088449,4.46854666 15.1982726,4.44493314 15.1845529,4.423331 C14.737006,3.71770113 14.2917189,3.0106633 13.8373526,2.30941823 C13.7929247,2.24087063 13.698904,2.18374764 13.617231,2.16282936 C12.3285011,1.83296419 11.0383589,1.50840905 9.7469657,1.18908348 C9.67320178,1.17086044 9.56759994,1.18184253 9.50727332,1.22327682 C8.83443985,1.68569146 8.16761887,2.15679524 7.48163056,2.6378352 M15.4422827,4.72024988 C15.4126642,4.74144975 15.3884932,4.75367889 15.3708592,4.77210307 C14.7324866,5.44056277 14.0931051,6.10809723 13.46018,6.78162559 C13.4146223,6.83005945 13.3939216,6.9249158 13.3999341,6.99487135 C13.50485,8.21287837 13.6133975,9.4306038 13.7303384,10.6475247 C13.7383685,10.7309162 13.8004302,10.8310021 13.8683431,10.8832978 C14.2555633,11.181504 14.6517417,11.4681246 15.0457815,11.757521 C15.4593114,12.0612785 15.8738501,12.3637488 16.2949258,12.6718509 C16.9192962,11.9678301 17.5327715,11.2777281 18.1424941,10.5843273 C18.1784076,10.5434965 18.1961626,10.4773223 18.2018119,10.4208832 C18.32646,9.17503875 18.202054,7.95683059 17.8079739,6.76481051 C17.7308204,6.53145101 17.6114988,6.35935794 17.4132482,6.21305067 C16.7511081,5.72436749 16.1003069,5.22047833 15.4422827,4.72024988 M8.93439238,16.2316592 C9.61509454,16.6664376 10.2785663,17.0932107 10.9474049,17.5114556 C11.0009927,17.5449651 11.1021961,17.5439997 11.1636123,17.5178518 C12.4612197,16.9652874 13.7568095,16.407936 15.0503816,15.8459986 C15.1147838,15.8180003 15.1829791,15.7490102 15.2060606,15.6838417 C15.5152799,14.8108254 15.8188096,13.9357977 16.1151969,13.0584368 C16.1331536,13.0052159 16.1006701,12.8994981 16.0557984,12.8659886 C15.272884,12.2812423 14.4855308,11.7023289 13.6942231,11.1289267 C13.6431372,11.0919174 13.5398354,11.0822226 13.4807193,11.1070429 C12.3350382,11.5878415 11.1916974,12.0743524 10.0505357,12.5657711 C9.98831253,12.5925626 9.92161026,12.6650525 9.90361315,12.7292555 C9.57780906,13.8898981 9.25918767,15.0525119 8.93439238,16.2316592 M7.17281477,2.76583898 C7.12967821,2.77247651 7.12293938,2.77307992 7.11644267,2.77456834 C6.12579485,2.99960075 5.13498563,3.22382861 4.14526591,3.45268263 C4.10112055,3.4629004 4.05499792,3.50791493 4.029576,3.54890671 C3.33216801,4.67378716 2.63629341,5.79963307 1.94550318,6.92857649 C1.91435124,6.97950446 1.90862122,7.07146443 1.93246941,7.1264956 C2.31985104,8.02038997 2.71215564,8.91223275 3.11132013,9.80093779 C3.13363493,9.85057847 3.23132773,9.905851 3.28354355,9.89704119 C4.47744566,9.69566253 5.67017756,9.48712338 6.86202171,9.27375693 C6.92993456,9.26156801 7.01289879,9.21156528 7.04760173,9.15428138 C7.69206756,8.0914719 8.33161042,7.02568558 8.96590749,5.95680175 C8.99843141,5.90205218 9.0037579,5.79729988 8.97280773,5.74411918 C8.41126577,4.77994743 7.84270252,3.81979842 7.27296906,2.86037351 C7.2467401,2.81620376 7.19557344,2.78675726 7.17281477,2.76583898 M5.61110186,16.3818284 C6.60873062,16.3113901 7.57117221,16.2461009 8.53264535,16.1691458 C8.59063154,16.1644794 8.6723852,16.0755365 8.69042266,16.0111725 C8.99931916,14.9079345 9.30171894,13.8028459 9.59782378,12.6961081 C9.61618405,12.62748 9.59588687,12.5197509 9.55049058,12.4673345 C8.7313802,11.5213053 7.90658014,10.5801839 7.07830979,9.64216001 C7.03932951,9.59799026 6.95160372,9.56335441 6.89486845,9.57296878 C5.7219495,9.77221538 4.55088676,9.98252454 3.37740289,10.1782311 C3.23330499,10.2022469 3.17422929,10.2512842 3.14646694,10.3880173 C2.96064482,11.3021864 2.77002077,12.2154301 2.577137,13.128151 C2.55123086,13.2508849 2.57899321,13.3379372 2.6657102,13.4321901 C3.50895123,14.3480487 4.34868162,15.2671254 5.18441714,16.1897825 C5.31338294,16.3321877 5.43811175,16.447198 5.61110186,16.3818284 M9.26148775,0 L9.82520872,0 C9.92403139,0.0132348342 10.0225716,0.0290039983 10.1217171,0.039302228 C10.428031,0.0710014661 10.7373714,0.0837535708 11.0405379,0.133836758 C12.84731,0.43244519 14.462409,1.1583497 15.8220378,2.38500562 C18.2959941,4.61694576 19.3534652,7.4107026 18.9888423,10.711607 C18.7971691,12.4470196 18.1418081,14.0265508 17.0240103,15.3747339 C14.5638949,18.3419113 11.3994308,19.5053297 7.60773135,18.8014698 C5.36822165,18.3857592 3.53449421,17.2107554 2.10509634,15.4367646 C1.0208313,14.0911561 0.354736658,12.5582888 0.117263648,10.8456047 C0.068840944,10.4966315 0.0386171063,10.1451642 0,9.79482321 C0,9.60748394 0,9.42014466 0,9.2328456 C0.013235539,9.13485151 0.0278027025,9.03705856 0.0395048559,8.93890356 C0.0859099471,8.54849606 0.106408892,8.15318082 0.181383378,7.76836494 C0.607140002,5.58284729 1.66162508,3.75233697 3.3569443,2.30101069 C4.75151817,1.10718037 6.36528548,0.379103579 8.18714936,0.119877829 C8.54370187,0.069151003 8.90328079,0.0394229104 9.26148775,0" id="Fill-1" fill="#FFFFFF" mask="url(#mask-2)"></path>
                </g>
            </g>
        </g>
    </g>
</svg>