<?xml version="1.0" encoding="UTF-8"?>
<svg width="22px" height="29px" viewBox="0 0 22 29" version="1.1" xmlns="http://www.w3.org/2000/svg" xmlns:xlink="http://www.w3.org/1999/xlink">
    <title>white_logo_little</title>
    <defs>
        <polygon id="path-1" points="0 0 9.50834593 0 9.50834593 9.95834074 0 9.95834074"></polygon>
    </defs>
    <g id="📱Application-iOS" stroke="none" stroke-width="1" fill="none" fill-rule="evenodd">
        <g id="Exports" transform="translate(-506, -732)">
            <g id="white_logo_little" transform="translate(507, 733.0019)">
                <g id="Group" transform="translate(0, -0)" fill="#FFFFFF" stroke="#FFFFFF" stroke-linecap="square" stroke-width="0.290693652">
                    <path d="M16.2587743,11.7542588 C17.7705729,12.4877899 19.3204725,14.4210498 18.6348956,16.8158881 C17.9493188,19.2107264 14.8782078,22.5782067 14.3681598,23.4651163 C14.0816998,23.9632344 13.9691848,24.7557416 14.0306148,25.8426382 L14.0498999,26.1204774 C14.0570496,26.2406742 13.9654068,26.3439089 13.84521,26.3510586 C13.8090496,26.3532095 13.772923,26.3463165 13.7400949,26.3310024 C11.4458236,25.263793 10.2697356,23.8649901 10.2122615,22.1336704 C10.1753225,21.0209389 10.323859,19.8441533 10.8707331,18.9964405 C11.6622815,17.7694567 12.8917465,17.2037987 13.4779174,16.8158881 C14.5637543,16.0973131 15.0142442,15.1436328 15.3824182,14.0084572 C15.7505922,12.8732816 14.7705765,11.032179 16.2587743,11.7542588 Z M12.7216724,18.9416181 C11.7459757,20.0184356 11.297069,21.0316545 11.3749521,21.981275 C11.4528352,22.9308955 11.9438891,23.7673411 12.8481137,24.4906117 C13.0521126,23.5204813 13.3248422,22.7826146 13.6663027,22.2770118 C14.0077632,21.7714089 14.6872559,21.0993137 15.7047807,20.2607259 C14.906454,20.3008277 14.3706954,20.353119 14.0975048,20.4176 C13.0960116,20.6539818 12.7216724,21.4169697 12.7216724,21.4169697 L12.7099172,21.3770453 C12.6695893,21.2352549 12.5412502,20.7414835 12.5766964,20.3131001 C12.6042188,19.9804785 12.6525442,19.5233179 12.7216724,18.9416181 Z" id="Combined-Shape" transform="translate(14.5044, 18.9712) rotate(-10) translate(-14.5044, -18.9712)"></path>
                    <path d="M6.77294426,0.121439495 C6.80186673,0.180204982 6.8028373,0.248859791 6.77558759,0.30841938 C6.46666843,0.954486353 6.29483048,1.37078694 6.25745451,1.5561228 C6.21066601,1.78813248 6.18246382,2.14083694 6.17284796,2.61423618 C6.60288584,2.16228355 6.93166723,1.84381423 7.15919211,1.6588282 C7.30736262,1.53836018 7.54634537,1.42013074 7.87614037,1.30413986 L8.04862034,1.24637707 C8.16327337,1.20959296 8.28603743,1.2727182 8.32282154,1.38737123 C8.33774833,1.4338968 8.3366137,1.48408794 8.31959969,1.52989145 C7.94782427,2.51789557 7.85115719,3.2990312 8.0292961,3.87318605 C8.22611379,4.50754399 9.15507787,4.88660391 9.94263334,5.18262965 C10.2334931,5.29195778 10.5702107,5.3547357 10.9527861,5.37096339 L11.1878343,5.37510892 C11.3082435,5.37512632 11.4058404,5.4727514 11.405823,5.59316065 C11.405816,5.64161028 11.3896709,5.6886773 11.359937,5.72692988 C11.2402638,5.88697089 11.1083992,6.03531554 10.9656433,6.17297449 C10.8591329,6.275682 10.6440344,6.42447781 10.3203477,6.6193619 L10.1749766,6.70570539 C7.84402154,7.00863915 6.04648115,7.91546102 4.78235542,9.42617099 C3.66504939,10.7614222 3.07355672,12.4489484 3.00787741,14.4887496 L3.00174498,14.8523714 C3.00137487,14.9727801 2.90346431,15.0700906 2.78305563,15.0697205 C2.73064907,15.0695594 2.68005408,15.0505265 2.64053493,15.0161069 C1.03894386,13.6699005 0.164180887,11.8761333 0.0151355997,9.6360802 C-0.139665013,7.30952828 0.892961542,5.29987216 3.11301527,3.60711185 C3.26202353,3.49771857 3.37910434,3.35113032 3.45580619,3.18297373 C3.77971586,2.47240157 4.13545196,1.90540528 4.52400361,1.48243604 C5.06728973,0.891026064 5.71980284,0.40457619 6.48154291,0.0230864196 C6.5890917,-0.0310694025 6.71977361,0.013405844 6.77294426,0.121439495 Z M1.66677634,8.72622318 C0.711091244,11.2222145 2.43955346,14.3510183 2.64012688,13.4226298 C2.8407003,12.4942414 2.941032,10.3775865 4.98207418,8.36232388 C6.73103301,6.63544226 9.41815795,6.51395072 9.65108677,6.22085593 C9.74107427,6.10762448 8.30246428,5.97544359 7.93672296,5.8805602 C6.62427579,5.54007521 5.91033652,5.38247442 5.33225008,5.35949985 C3.59459411,5.29042636 2.3735072,6.88046919 1.66677634,8.72622318 Z" id="Combined-Shape"></path>
                </g>
                <g id="Group-3" transform="translate(4.218, 8.2351)">
                    <mask id="mask-2" fill="white">
                        <use xlink:href="#path-1"></use>
                    </mask>
                    <g id="Clip-2"></g>
                    <path d="M6.7621673,0.964913152 C6.17225778,0.626528375 5.54405839,0.456787824 4.87889781,0.438571971 C4.87666322,0.447700981 4.87442864,0.456829991 4.87219406,0.465937917 C5.50218514,0.632262996 6.13217622,0.798588074 6.7621673,0.964913152 M7.54207669,8.46246565 C7.52699829,8.46760995 7.51143674,8.47153141 7.49694216,8.4780672 C6.854067,8.76842453 6.21091001,9.05808611 5.56910181,9.35095234 C5.50397683,9.3806796 5.44698492,9.42990879 5.38620832,9.4700933 C6.20253536,9.36086143 6.91836659,9.02230798 7.54207669,8.46246565 M2.00009183,1.5159638 C1.9904489,1.51014485 1.98082611,1.50432589 1.97118318,1.49850694 C1.25253355,2.13937187 0.774252473,2.93711662 0.553290561,3.90439108 C0.652981103,3.80051433 0.755047147,3.69670084 0.82844612,3.57410224 C1.18885803,2.97215683 1.54266685,2.36584721 1.89583147,1.75917918 C1.93965746,1.6838912 1.96576784,1.59730265 2.00009183,1.5159638 M0.789210081,6.74304932 C0.780835431,6.75375957 0.772460781,6.76446982 0.764086132,6.77518006 C1.17061901,7.74081004 1.81437994,8.47876294 2.70927972,8.9802049 C2.68224329,8.89062254 2.65665632,8.7960013 2.60036901,8.73017967 C2.14270245,8.19485706 1.68268052,7.66162168 1.21539117,7.1355335 C1.08719461,6.99119816 0.932022017,6.87315353 0.789210081,6.74304932 M3.73251697,1.38248629 C4.03251464,1.91595358 4.32671447,2.44088219 4.62433664,2.9636814 C4.64173014,2.99425199 4.68432812,3.01866629 4.71933657,3.02718389 C5.22282212,3.14961382 5.72693175,3.26913428 6.23106151,3.38859148 C6.34770266,3.41623151 6.47932156,3.48772452 6.5779854,3.45441312 C6.68228602,3.41918315 6.75673183,3.28414549 6.84198818,3.19047299 C7.09336859,2.91430463 7.34366191,2.63701886 7.59590797,2.35846811 C7.58755345,2.34195999 7.58227903,2.32958417 7.57543437,2.31826251 C7.35215735,1.94844274 7.13000768,1.57788505 6.90332846,1.21036334 C6.88116382,1.17443763 6.83425773,1.14449954 6.79351184,1.1335363 C6.15057629,0.960654353 5.50693614,0.790555389 4.86267192,0.623197235 C4.82587178,0.613646562 4.77318799,0.619402266 4.74309159,0.641117924 C4.40742113,0.883468891 4.07475025,1.13037382 3.73251697,1.38248629 M7.70401342,2.47387734 C7.689237,2.48498817 7.67717831,2.49139745 7.6683809,2.50105354 C7.34990263,2.85139247 7.03092108,3.20124649 6.71516055,3.5542419 C6.69243223,3.57962603 6.68210484,3.62934013 6.68510442,3.66600375 C6.73744598,4.30435978 6.79159936,4.94256823 6.84994007,5.58035501 C6.85394621,5.62406041 6.88490826,5.67651532 6.91878935,5.70392344 C7.11196998,5.86021293 7.30961976,6.01043047 7.50620259,6.16210275 C7.71250886,6.32130172 7.91931842,6.47982602 8.12938926,6.64130198 C8.44088194,6.27232553 8.74693915,5.91064385 9.05112415,5.54723336 C9.06904107,5.52583395 9.07789887,5.49115215 9.08071726,5.46157247 C9.14290306,4.80862689 9.08083805,4.17016544 8.88423509,3.54542914 C8.84574392,3.4231257 8.78621546,3.33293193 8.68731004,3.25625246 C8.35697439,3.00013419 8.03229567,2.73604648 7.70401342,2.47387734 M4.45728653,8.5069933 C4.79688261,8.73486013 5.12788259,8.95853141 5.46156004,9.17773307 C5.48829449,9.19529534 5.53878397,9.19478934 5.56942391,9.18108529 C6.21678837,8.89148695 6.86314625,8.59937972 7.50849756,8.30486901 C7.54062723,8.29019512 7.57464924,8.2540375 7.58616439,8.21988277 C7.74043107,7.76233595 7.89185923,7.30373498 8.03972414,6.84391118 C8.0486826,6.81601815 8.03247685,6.7606116 8.01009077,6.74304932 C7.61950193,6.43658446 7.22669865,6.13317665 6.83192249,5.83265723 C6.80643618,5.81326072 6.75489987,5.80817968 6.72540742,5.82118799 C6.15383757,6.07317396 5.58343535,6.32815375 5.01412022,6.58570567 C4.98307764,6.59974706 4.94980049,6.63773892 4.9408219,6.67138765 C4.77828122,7.27967909 4.61932393,7.8890036 4.45728653,8.5069933 M3.5784516,1.44957292 C3.55693116,1.45305164 3.55356922,1.45336789 3.55032807,1.45414797 C3.05610295,1.57208718 2.5617973,1.68960474 2.0680352,1.80954686 C2.04601148,1.81490198 2.02300133,1.83849404 2.01031856,1.85997778 C1.6623881,2.44952629 1.31522264,3.03958079 0.970593721,3.6312587 C0.955052303,3.65794998 0.952193649,3.70614609 0.964091288,3.73498786 C1.15735244,4.20347684 1.35306961,4.67089058 1.55220912,5.13665983 C1.56334177,5.16267646 1.61207981,5.19164472 1.6381298,5.18702751 C2.23375663,5.08148519 2.82879966,4.97219007 3.42339979,4.86036497 C3.45728088,4.85397677 3.49867098,4.8277704 3.51598396,4.79774798 C3.83750206,4.24073079 4.15656414,3.68215345 4.47300913,3.12195271 C4.48923502,3.09325853 4.49189236,3.03835797 4.4764516,3.01048603 C4.19630346,2.50516476 3.91265246,2.00195181 3.62841766,1.49911835 C3.61533227,1.47596904 3.58980569,1.46053616 3.5784516,1.44957292 M2.79932733,8.58569675 C3.29703518,8.54878013 3.77718848,8.51456215 4.25685862,8.47423006 C4.2857874,8.47178441 4.32657355,8.42516954 4.33557227,8.39143648 C4.48967791,7.81323071 4.64054239,7.23405512 4.78826638,6.65401512 C4.79742615,6.61804725 4.78730008,6.56158653 4.76465228,6.53411517 C4.35600561,6.03830241 3.94452042,5.5450618 3.53130393,5.05344459 C3.51185703,5.03029527 3.46809143,5.01214267 3.43978672,5.01718154 C2.8546282,5.12160645 2.27039573,5.23182923 1.68495537,5.33439883 C1.61306625,5.34698547 1.58359392,5.37268585 1.56974354,5.44434752 C1.47703858,5.92346242 1.38193799,6.4020924 1.28571005,6.8804483 C1.27278571,6.94477303 1.28663609,6.990397 1.3298984,7.03979485 C1.75058363,7.51979524 2.16951743,8.00148228 2.58645823,8.48504572 C2.65079809,8.55968012 2.71302415,8.61995689 2.79932733,8.58569675 M4.62047142,0 L4.90170665,0 C4.95100837,0.00693636085 5.00016918,0.015200961 5.04963195,0.0205982509 C5.20244918,0.0372117839 5.35677626,0.0438951468 5.50802324,0.0701436856 C6.40940531,0.22664401 7.21516338,0.607089698 7.89346974,1.24997861 C9.12770388,2.41973578 9.65526655,3.88394041 9.47335949,5.61394049 C9.37773549,6.52346817 9.05078191,7.3512986 8.49312285,8.05787974 C7.26579377,9.6129739 5.68707164,10.2227201 3.7954275,9.85382796 C2.67815662,9.63595454 1.76332679,9.02013642 1.05021329,8.09038998 C0.509283387,7.38515816 0.17697487,6.5817842 0.0585017599,5.68416851 C0.0343441165,5.50127207 0.0192657207,5.31706846 0,5.13345519 C0,5.0352709 0,4.93708661 0,4.8389234 C0.00660308922,4.78756481 0.0138705136,4.73631164 0.0197086108,4.68486872 C0.0428596858,4.48025661 0.0530864215,4.27307237 0.0904905062,4.07139082 C0.302896586,2.92596362 0.828969536,1.96659534 1.67474877,1.20595696 C2.3704889,0.580271914 3.17558263,0.198687735 4.08449383,0.0628278278 C4.26237461,0.0362419584 4.44176525,0.0206615004 4.62047142,0" id="Fill-1" fill="#FFFFFF" mask="url(#mask-2)"></path>
                </g>
            </g>
        </g>
    </g>
</svg>