<?xml version="1.0" encoding="UTF-8"?>
<svg width="30px" height="40px" viewBox="0 0 30 40" version="1.1" xmlns="http://www.w3.org/2000/svg" xmlns:xlink="http://www.w3.org/1999/xlink">
    <title>black_logo_little</title>
    <defs>
        <polygon id="path-1" points="0 0 13.6727324 0 13.6727324 14.0159412 0 14.0159412"></polygon>
    </defs>
    <g id="📱Application-iOS" stroke="none" stroke-width="1" fill="none" fill-rule="evenodd">
        <g id="Exports" transform="translate(-563, -726)">
            <g id="black_logo_little" transform="translate(564, 727)">
                <g id="Group" fill="#262626" stroke="#262626" stroke-linecap="square" stroke-width="0.415276646">
                    <path d="M23.3795716,16.5396536 C25.5534954,17.5720674 27.782207,20.2930486 26.7963669,23.6636816 C25.8105268,27.0343146 21.3943561,31.7738999 20.6609215,33.0221876 C20.2433867,33.7328216 20.0828435,34.8691661 20.1792921,36.4312208 L20.2021843,36.749295 C20.2147705,36.9208471 20.0859031,37.0701207 19.9143509,37.0827068 C19.8608543,37.0866317 19.8072507,37.0766737 19.758733,37.0537974 C16.4586848,35.5537485 14.7675035,33.5849929 14.6848574,31.1482341 C14.6317402,29.5821118 14.8453314,27.925836 15.6317209,26.7327163 C16.7699451,25.0057888 18.5378811,24.2096493 19.3807781,23.6636816 C20.9421809,22.6523179 21.5899727,21.3100533 22.1193965,19.712342 C22.6488202,18.1146306 21.2395854,15.523357 23.3795716,16.5396536 Z M18.2933193,26.6555562 C16.8902951,28.171131 16.2447798,29.5971936 16.3567735,30.9337441 C16.4687672,32.2702945 17.1748888,33.4475561 18.4751383,34.4655287 C18.7684829,33.1001114 19.1606604,32.0615954 19.651671,31.3499809 C20.1426815,30.6383664 21.1197727,29.6924209 22.5829446,28.5121443 C21.4349734,28.5685858 20.6645676,28.6421837 20.2717274,28.732938 C18.8316084,29.0656353 18.2933193,30.1395083 18.2933193,30.1395083 C18.2933193,30.1395083 18.0246098,29.298414 18.0848478,28.5858588 C18.1244243,28.117708 18.1939148,27.4742738 18.2933193,26.6555562 Z" id="Combined-Shape" transform="translate(20.8569, 26.6967) rotate(-10) translate(-20.8569, -26.6967)"></path>
                    <path d="M9.72984267,0.17312538 C9.772318,0.258755992 9.77312084,0.359148577 9.73202043,0.445447544 C9.29587269,1.34657603 9.05145959,1.9269451 8.99804252,2.18620299 C8.93076198,2.51274675 8.89020804,3.00916328 8.8763807,3.67545258 C9.49476301,3.03934848 9.96754134,2.59111644 10.2947157,2.33075648 C10.5445695,2.13192689 10.973997,1.93742997 11.5829982,1.74726571 C11.7472003,1.69597812 11.9207775,1.78957483 11.970108,1.95436272 C11.9896243,2.01955671 11.9872511,2.08934859 11.9633513,2.15306627 C11.4285266,3.5415973 11.2899446,4.63991201 11.5459006,5.44737099 C11.8289189,6.34020281 13.1647429,6.87371353 14.2972254,7.29035717 C14.7269116,7.44844 15.2261962,7.53737287 15.7950791,7.55715576 L16.0853204,7.56128071 C16.257333,7.56081317 16.3971558,7.69987791 16.3976233,7.87189049 C16.3978157,7.942679 16.3738881,8.01142134 16.3297831,8.06679098 C16.1580188,8.28736606 15.9707708,8.49311235 15.7682848,8.68422543 C15.6126948,8.83107643 15.2959617,9.04487037 14.8180856,9.32560724 L14.6313285,9.43402152 C11.279481,9.8603879 8.6946688,11.1367011 6.87689178,13.2629612 C5.24969187,15.1663025 4.39805805,17.5782177 4.32199032,20.4987067 L4.31642528,20.9001075 C4.31675345,21.0721204 4.17757548,21.2118305 4.00556257,21.2121587 C3.93297825,21.2122971 3.86262487,21.1870801 3.80665565,21.1408638 C1.49793422,19.243776 0.236424809,16.7161414 0.0217645641,13.5583995 C-0.200834337,10.2838766 1.28405343,7.45537103 4.47642787,5.07288287 C4.69106512,4.91784175 4.86073691,4.70942027 4.97268828,4.46950908 C5.43735118,3.47235391 5.94787884,2.67650767 6.50538918,2.08249201 C7.19814461,1.34437551 8.01440438,0.722420319 8.95416849,0.216626438 L9.31242383,0.0325087299 C9.46652108,-0.043928084 9.65340586,0.0190281347 9.72984267,0.17312538 Z M2.39677721,12.2778144 C1.02252909,15.7908161 3.50800885,20.1944744 3.79642775,18.8878071 C4.08484665,17.5811397 4.2291208,14.602038 7.16408169,11.7656416 C8.75247326,10.2305811 10.8789926,9.5968243 12.3146859,9.2342791 L12.6585059,9.14892841 C13.3145166,8.98806896 13.7722176,8.8818855 13.8779897,8.75161651 C13.9485712,8.66468827 13.3651786,8.56982499 12.7348893,8.47987392 L12.4186472,8.43536721 C11.9992751,8.37672934 11.6040287,8.32122633 11.412783,8.27266475 C9.52552114,7.7934466 8.49889668,7.5716302 7.66762474,7.53929446 C5.16892462,7.44207646 3.4130362,9.67999414 2.39677721,12.2778144 Z" id="Combined-Shape"></path>
                </g>
                <g id="Group-3" transform="translate(6.0653, 11.5866)">
                    <mask id="mask-2" fill="white">
                        <use xlink:href="#path-1"></use>
                    </mask>
                    <g id="Clip-2"></g>
                    <path d="M9.72380523,1.35807423 C8.87553203,0.881812047 7.97219909,0.642909439 7.01571699,0.6172714 C7.01250373,0.630120093 7.00929046,0.642968787 7.0060772,0.655787806 C7.91198654,0.889883281 8.81789589,1.12397876 9.72380523,1.35807423 M10.8452929,11.9105606 C10.8236106,11.9178009 10.8012335,11.9233202 10.7803907,11.9325191 C9.85595441,12.3411847 8.93111285,12.748871 8.00821082,13.1610678 C7.91456295,13.2029077 7.8326102,13.2721956 7.74521516,13.3287536 C8.91907034,13.1750144 9.9484154,12.6985148 10.8452929,11.9105606 M2.87607546,2.13365459 C2.8622092,2.12546466 2.84837189,2.11727473 2.83450564,2.1090848 C1.80110781,3.01107493 1.11335315,4.13386675 0.795616171,5.49526443 C0.93896835,5.34906232 1.08573643,5.20294924 1.19128208,5.03039693 C1.70954421,4.18318436 2.21831128,3.32982935 2.726152,2.47596989 C2.78917254,2.37000526 2.82671854,2.24813556 2.87607546,2.13365459 M1.13486177,9.4905552 C1.12281926,9.50562941 1.11077675,9.52070363 1.09873424,9.53577785 C1.68331701,10.894861 2.60902702,11.9334983 3.89586757,12.6392565 C3.85698995,12.5131732 3.82019661,12.3799978 3.73925705,12.2873567 C3.08114549,11.5339128 2.41964698,10.7834067 1.74769812,10.04296 C1.56335509,9.83981413 1.34022129,9.67367133 1.13486177,9.4905552 M5.36725378,1.94579067 C5.79864194,2.6966232 6.22169298,3.43543789 6.64966524,4.17125555 C6.6746766,4.21428235 6.73593129,4.24864445 6.78627245,4.26063261 C7.51027043,4.43294753 8.23516581,4.60116749 8.96009013,4.76929842 C9.12781681,4.80820059 9.31708106,4.90882396 9.45895687,4.86193958 C9.60893822,4.8123549 9.71598918,4.62229513 9.8385854,4.49045507 C10.2000633,4.10175985 10.559978,3.71149192 10.9227007,3.31944357 C10.9106872,3.2962091 10.9031027,3.27879066 10.8932603,3.26285591 C10.5721942,2.7423503 10.2527493,2.22080612 9.92679099,1.70353494 C9.89491887,1.65297103 9.82746924,1.61083444 9.7688778,1.59540414 C8.84435467,1.35208015 7.91881835,1.11267309 6.99238463,0.877123609 C6.93946707,0.863681443 6.86370926,0.871782351 6.82043149,0.902346217 C6.33774688,1.2434449 5.85937556,1.59095309 5.36725378,1.94579067 M11.0781533,3.48187717 C11.0569052,3.49751518 11.0395652,3.50653598 11.0269148,3.52012651 C10.568952,4.01321366 10.1102656,4.50561831 9.65621086,5.00244434 C9.62352819,5.03817142 9.60867769,5.10814191 9.61299099,5.15974439 C9.68825667,6.05820336 9.76612771,6.95645461 9.85002,7.85411239 C9.85578072,7.91562588 9.90030326,7.98945394 9.94902332,8.02802969 C10.2268116,8.24800051 10.5110264,8.45942531 10.7937069,8.67289759 C11.0903695,8.89696337 11.3877558,9.1200796 11.6898317,9.34735013 C12.1377494,8.82803147 12.577851,8.3189799 13.0152604,7.80749508 C13.0410244,7.77737632 13.0537617,7.72856315 13.0578145,7.68693101 C13.1472359,6.76793788 13.0579882,5.86933054 12.7752787,4.99004075 C12.7199295,4.81790387 12.6343292,4.69095997 12.492106,4.58303688 C12.0170927,4.2225613 11.5502139,3.85086908 11.0781533,3.48187717 M6.40945191,11.9732313 C6.89778146,12.2939442 7.37375006,12.608752 7.85356879,12.917269 C7.89201219,12.9419872 7.96461462,12.941275 8.008674,12.9219871 C8.93956576,12.5143898 9.86901011,12.1032613 10.797007,11.68875 C10.8432086,11.6680971 10.8921313,11.6172068 10.9086897,11.5691355 C11.1305209,10.9251578 11.3482703,10.2796964 11.5608958,9.63251397 C11.5737778,9.59325572 11.5504744,9.51527335 11.5182839,9.4905552 C10.9566282,9.05921893 10.3917882,8.63218534 9.82411123,8.20921704 C9.78746263,8.18191728 9.71335488,8.17476593 9.67094557,8.19307457 C8.8490443,8.54773411 8.02882204,8.90660731 7.21016299,9.2691007 C7.16552465,9.28886335 7.11767305,9.34233528 7.10476209,9.38969444 C6.87103319,10.2458388 6.6424571,11.1034371 6.40945191,11.9732313 M5.14571214,2.04021225 C5.11476637,2.0451084 5.10993199,2.0455535 5.10527131,2.04665143 C4.39458957,2.21264586 3.68379203,2.37804682 2.9737761,2.54686025 C2.94210662,2.55439736 2.90901867,2.58760218 2.89078121,2.61783964 C2.39046706,3.44760409 1.89125294,4.27808072 1.39568631,5.11084221 C1.37333819,5.14840906 1.36922752,5.21624304 1.38633599,5.2568366 C1.66424005,5.91621492 1.94567581,6.57407988 2.23203279,7.2296303 C2.24804122,7.26624759 2.31812515,7.30701919 2.35558431,7.30052066 C3.21207884,7.15197434 4.06773386,6.9981461 4.92275203,6.84075703 C4.97147208,6.83176591 5.03098987,6.79488156 5.05588544,6.75262627 C5.51821938,5.96864827 5.97702161,5.18247441 6.43206057,4.39401569 C6.45539293,4.35362984 6.45921411,4.27635964 6.43701073,4.23713107 C6.03416564,3.52591287 5.62628353,2.81766204 5.21756192,2.10994534 C5.1987455,2.07736366 5.162039,2.05564255 5.14571214,2.04021225 M4.02535349,12.0840031 C4.7410433,12.0320445 5.43149015,11.9838842 6.12124224,11.9271185 C6.16284101,11.9236763 6.22149034,11.8580679 6.23443025,11.81059 C6.45602979,10.99679 6.67296865,10.181625 6.88539157,9.36524335 C6.89856306,9.31462009 6.88400205,9.23515404 6.85143517,9.19648926 C6.26381282,8.49865388 5.67210875,7.80443869 5.07791513,7.11250837 C5.04995103,7.0799267 4.98701734,7.05437768 4.94631598,7.06146968 C4.10487458,7.2084433 3.26476481,7.36357718 2.42291814,7.50793952 C2.31954362,7.52565469 2.27716325,7.56182688 2.2572468,7.66268764 C2.12393969,8.33702148 1.98718773,9.01067283 1.84881467,9.68393842 C1.83022984,9.77447274 1.85014629,9.83868653 1.91235628,9.90821191 C2.51728973,10.583792 3.11970468,11.2617461 3.71925375,11.9423411 C3.81177264,12.0473858 3.90125196,12.1322228 4.02535349,12.0840031 M6.64410716,0 L7.04851546,0 C7.11940995,0.00976263295 7.19010179,0.0213947063 7.26122786,0.0289911623 C7.48097471,0.0523740035 7.70289268,0.0617805526 7.92038156,0.0987242548 C9.21654348,0.318991806 10.3752008,0.854452936 11.3505861,1.75929174 C13.1253799,3.40567522 13.8840001,5.46648098 13.6224229,7.90138253 C13.4849183,9.18150407 13.0147683,10.3466402 12.2128703,11.3411231 C10.4480059,13.529852 8.1778481,14.3880438 5.45771735,13.8688438 C3.85111344,13.5621963 2.53561403,12.6954585 1.51017699,11.3868799 C0.7323351,10.3942961 0.254484855,9.2635814 0.0841238754,8.00022548 C0.0493858677,7.74280651 0.0277035612,7.48354777 0,7.2251199 C0,7.08692968 0,6.94873946 0,6.81057892 C0.00949505545,6.73829389 0.0199454061,6.66615723 0.0283404247,6.59375351 C0.0616310154,6.30577068 0.076336772,6.01416766 0.130122787,5.73030946 C0.435556721,4.11816938 1.19203474,2.76789932 2.40824134,1.69733315 C3.40869596,0.816708045 4.56639796,0.279644538 5.87338656,0.088427496 C6.12917409,0.0510090153 6.38713274,0.0290801833 6.64410716,0" id="Fill-1" fill="#262626" mask="url(#mask-2)"></path>
                </g>
            </g>
        </g>
    </g>
</svg>