<?xml version="1.0" encoding="UTF-8"?>
<svg width="13px" height="13px" viewBox="0 0 13 13" version="1.1" xmlns="http://www.w3.org/2000/svg" xmlns:xlink="http://www.w3.org/1999/xlink">
    <title>ball</title>
    <defs>
        <polygon id="path-1" points="0 0 13 0 13 13 0 13"></polygon>
    </defs>
    <g id="📱Application-iOS" stroke="none" stroke-width="1" fill="none" fill-rule="evenodd">
        <g id="Exports" transform="translate(-137, -903)">
            <g id="ball" transform="translate(137, 903)">
                <g id="Group-3">
                    <mask id="mask-2" fill="white">
                        <use xlink:href="#path-1"></use>
                    </mask>
                    <g id="Clip-2"></g>
                </g>
                <path d="M6.31351082,10.6902556 C5.61457706,10.6286848 4.96474216,10.5120283 4.36614308,10.192908 C4.13092645,10.0675029 3.95819004,9.89680351 3.84338011,9.64848574 C3.61493048,9.15434253 3.4313567,8.65078949 3.36264373,8.10697763 C3.33326073,7.87437682 3.36101558,7.69584438 3.56496666,7.5342242 C4.02868379,7.16670677 4.47217627,6.77365565 4.92167254,6.38841214 C5.0379071,6.28882054 5.15536277,6.27394283 5.30576302,6.31020882 C5.88947981,6.45102565 6.47151757,6.59489432 7.02773391,6.82635069 C7.49279936,7.01991343 7.50027866,7.01826035 7.6196932,7.50223078 C7.75521115,8.0515868 7.87658456,8.6045033 8.00001859,9.156784 C8.00945677,9.19900107 8.00253713,9.26268273 7.97618147,9.29243814 C7.52004541,9.80730841 7.02895502,10.2832169 6.43198408,10.6366196 C6.38654856,10.6635266 6.33526187,10.680566 6.31351082,10.6902556" id="Fill-4" fill="#FFFFFF"></path>
                <path d="M8.41408736,2.89544525 C8.66098087,3.02934458 8.79614266,3.24589782 8.91520104,3.48096554 C9.15280901,3.95010912 9.22238693,4.45874856 9.27492017,4.9740766 C9.29293156,5.15065078 9.23966057,5.26308553 9.11246144,5.37557114 C8.59931473,5.82935382 8.0939526,6.29196138 7.58279019,6.74803293 C7.55394143,6.77374466 7.48741629,6.79210654 7.45762625,6.7767202 C6.8014314,6.43834781 6.09379722,6.25668724 5.37919253,6.1024169 C5.2096361,6.06582029 5.14079593,5.99537373 5.09454633,5.83210047 C4.91720531,5.20596532 4.74884454,4.57896549 4.65787173,3.9330697 C4.64250607,3.82396654 4.66209474,3.74095659 4.73146914,3.65453875 C5.16656647,3.11235454 5.68528451,2.6741871 6.31303764,2.37052935 C6.37444937,2.34082481 6.44669848,2.3335004 6.48399326,2.32368366 C7.18071376,2.4188501 7.82075432,2.57365451 8.41408736,2.89544525 Z" id="Fill-6" fill="#FFFFFF"></path>
                <path d="M10.2638221,9.18679627 C10.4158505,9.50034705 10.5301771,9.85087592 10.4781018,10.2010233 C10.4227702,10.5731185 10.2661626,10.9191459 9.92717693,11.158944 C9.25187677,11.6366072 8.51938789,11.9759969 7.71096112,12.1512486 C7.68229044,12.1574795 7.64914235,12.1698648 7.62398236,12.1615486 C7.3558466,12.0727401 7.08842316,11.9817445 6.82247522,11.886629 C6.79583973,11.8771174 6.77645458,11.8386134 6.76030029,11.8098753 C6.610765,11.544162 6.5314945,11.2564501 6.50717403,10.95442 C6.50371421,10.9117198 6.53324985,10.8449863 6.56835681,10.8236997 C7.16448823,10.4619553 7.66053939,9.98597055 8.12201782,9.47094769 C8.18210668,9.40388358 8.23530136,9.37946889 8.32660489,9.391015 C8.81978134,9.4532979 9.31369555,9.47466076 9.80066468,9.34635646 C9.95437211,9.30584333 10.1022538,9.24317895 10.2638221,9.18679627" id="Fill-8" fill="#FFFFFF"></path>
                <path d="M8.90213006,2.97864849 C9.20862907,2.76008612 9.5239557,2.53333466 9.84271672,2.31154244 C9.86680823,2.29478277 9.92509087,2.29892818 9.95091229,2.31701031 C10.5775206,2.75576269 11.1509088,3.25496686 11.6263537,3.85615325 C11.712493,3.96507838 11.7619734,4.1216376 11.7798576,4.26237813 C11.8389798,4.72742717 11.8794546,5.1950194 11.9172073,5.66245904 C11.9224224,5.72708169 11.8887401,5.81098176 11.844602,5.8607267 C11.6418975,6.08913124 11.4119723,6.2872463 11.1347037,6.441008 C10.8459871,6.08132362 10.4950702,5.79801145 10.117823,5.54595518 C9.96681218,5.44509198 9.81618298,5.34066831 9.65433481,5.26002352 C9.53252893,5.19929197 9.50301873,5.11798596 9.49589558,4.99184338 C9.469082,4.51781686 9.40260774,4.04872414 9.21671894,3.60753029 C9.12717075,3.3949953 9.01078355,3.19377754 8.90213006,2.97864849" id="Fill-10" fill="#FFFFFF"></path>
                <path d="M2.43866673,3.80719161 C2.33159051,3.50152474 2.29714499,3.18934729 2.32093122,2.87071012 C2.32439104,2.82462738 2.35621626,2.77495874 2.387609,2.73757374 C2.66480134,2.40728872 2.93059663,2.06555932 3.23027778,1.75681518 C3.37296976,1.60981838 3.57720067,1.51864477 3.7618938,1.41732379 C3.94299992,1.31801194 4.13463812,1.2378758 4.32167172,1.1494234 C4.53941118,1.04644934 4.76554579,1.00057007 5.00900492,1.01605814 C5.31703032,1.03566619 5.62617508,1.03820939 5.93488735,1.04591527 C5.99726581,1.04746662 6.033543,1.0608947 6.04758578,1.13304521 C6.10813256,1.44392563 6.1781684,1.75294952 6.23721424,2.06405883 C6.24380315,2.09867175 6.21274113,2.16316723 6.1815519,2.17883332 C5.51533376,2.51326375 4.96326411,2.98271252 4.50941763,3.57146267 C4.49059216,3.59590279 4.44625054,3.62400512 4.42233711,3.61774886 C4.01181465,3.51062939 3.60648191,3.58293249 3.20224309,3.65167511 C2.9526784,3.6941465 2.7057849,3.75220769 2.43866673,3.80719161" id="Fill-12" fill="#FFFFFF"></path>
                <path d="M1.689095,6.49454739 C1.83221946,6.67020601 1.96219153,6.84171923 2.10473087,7.00206781 C2.37370614,7.30468285 2.67794101,7.56350402 3.05411971,7.72832863 C3.08416414,7.7415024 3.12005973,7.78529625 3.12059397,7.81543314 C3.13445867,8.57867204 3.38758493,9.2711592 3.74005371,9.93500997 C3.7477111,9.94940446 3.75340962,9.96481624 3.7645777,9.99007018 C3.49349093,10.2328184 3.22380334,10.4756428 2.95147001,10.7154409 C2.93063479,10.7337773 2.88799765,10.7424751 2.86037,10.7357356 C2.61334929,10.6753601 2.38998763,10.5912311 2.21223957,10.3805018 C1.83374585,9.9317801 1.48555096,9.46390812 1.25895844,8.92215626 C1.05284497,8.42933551 0.939714072,7.90820897 0.918013901,7.37192498 C0.915419039,7.30803987 0.943886203,7.22719163 0.986497911,7.17993903 C1.16170199,6.98576592 1.34649688,6.80011253 1.53111369,6.61468802 C1.57741417,6.56817294 1.63625649,6.53414497 1.689095,6.49454739" id="Fill-14" fill="#FFFFFF"></path>
                <path d="M10.4451903,9.03481226 C10.9060582,8.5639393 11.0455956,7.96509266 11.1467443,7.35241103 C11.1796889,7.15282091 11.1877788,6.94926341 11.2140581,6.7484017 C11.2197566,6.70463327 11.244535,6.65272662 11.2776322,6.62487861 C11.515978,6.42432208 11.7587248,6.22900454 12.0000978,6.03205935 C12.0127923,6.02170854 12.0257157,6.01163747 12.049909,5.9924109 C12.1886578,6.30461379 12.297464,6.60972116 12.2663765,6.95544338 C12.1646681,8.08602169 11.7839357,9.10853955 11.0869862,10.0057286 C11.0133379,10.1005136 10.8630394,10.1358386 10.7253082,10.2113461 C10.7012167,9.77706979 10.6246937,9.39182628 10.4451903,9.03481226" id="Fill-16" fill="#FFFFFF"></path>
                <path d="M0.792399676,6.99452978 C0.775304114,6.94887939 0.739306761,6.89427695 0.736025023,6.8377671 C0.664539115,5.6106236 0.957555021,4.47541667 1.60583809,3.43153596 C1.71886723,3.24951934 1.82243276,3.1605583 2.07141233,3.02373429 C2.09097555,3.19178876 2.10692633,3.35686769 2.13063624,3.52082761 C2.14327984,3.60818643 2.15429528,3.701064 2.19268398,3.77819917 C2.25760641,3.90861432 2.22262665,4.01347034 2.16459841,4.13411961 C1.93383375,4.61417351 1.71889267,5.10228935 1.61909224,5.62903635 C1.5832984,5.8179196 1.5900654,6.0147122 1.57469974,6.20769 C1.57172328,6.24522759 1.56826347,6.2948708 1.54452811,6.3167423 C1.30292609,6.53932291 1.05707562,6.75730035 0.792399676,6.99452978" id="Fill-18" fill="#FFFFFF"></path>
                <path d="M9.6431998,1.65362241 C10.0954181,1.94334344 10.4952304,2.2940249 10.8420516,2.70726901 C10.6329108,2.54564882 10.4188092,2.39000516 10.2160538,2.22075538 C10.0100421,2.04878439 9.81527478,1.86338532 9.61557215,1.68386103 C9.62478136,1.67378997 9.63399058,1.66369347 9.6431998,1.65362241" id="Fill-20" fill="#FFFFFF"></path>
                <path d="M6.36069406,12.2579205 C6.59476589,12.160516 6.81558358,12.0334325 7.06367275,12.2579205 L6.36069406,12.2579205 Z" id="Fill-22" fill="#FFFFFF"></path>
            </g>
        </g>
    </g>
</svg>