<?xml version="1.0" encoding="UTF-8"?>
<svg width="54px" height="85px" viewBox="0 0 54 85" version="1.1" xmlns="http://www.w3.org/2000/svg" xmlns:xlink="http://www.w3.org/1999/xlink">
    <title>tail_fox</title>
    <g id="📱Application-iOS" stroke="none" stroke-width="1" fill="none" fill-rule="evenodd" stroke-linecap="square">
        <g id="Exports" transform="translate(-535, -589)" fill="#EA703A" stroke="#EA703A" stroke-width="1.4902272">
            <path d="M567.231992,591.382373 C575.084573,596.442598 587.507934,610.826586 583.844106,622.903779 C580.180277,634.980971 563.767787,651.963206 561.042012,656.4359 C559.434176,659.074179 558.851729,663.350062 559.294669,669.26355 L559.337786,669.805649 C559.389293,670.420769 558.932394,670.961177 558.317275,671.012684 C558.132667,671.028142 557.947111,670.99747 557.777297,670.923426 C545.455205,665.540948 539.140148,658.473703 538.83225,649.721406 C538.634843,644.10989 539.428645,638.175349 542.351224,633.900325 C546.581381,627.712634 553.680907,626.985671 560.748951,616.176324 C567.816994,605.366976 566.73321,591.347625 567.231992,591.382373 Z M552.242929,633.623856 C547.028656,639.054256 544.629629,644.163929 545.045848,648.952874 C545.462067,653.74182 548.086335,657.960023 552.918651,661.607483 C554.008852,656.715106 555.466362,652.994038 557.291179,650.444278 C559.115997,647.894518 562.74731,644.505135 568.18512,640.276129 C563.918739,640.478362 561.055562,640.742068 559.59559,641.067246 C554.243455,642.259322 552.242929,646.107077 552.242929,646.107077 C552.242929,646.107077 551.244283,643.093383 551.468155,640.540252 C551.615239,638.862838 551.873497,636.557373 552.242929,633.623856 Z" id="tail_fox" transform="translate(561.6541, 631.1994) rotate(-4) translate(-561.6541, -631.1994)"></path>
        </g>
    </g>
</svg>