<?xml version="1.0" encoding="UTF-8"?>
<svg width="66px" height="79px" viewBox="0 0 66 79" version="1.1" xmlns="http://www.w3.org/2000/svg" xmlns:xlink="http://www.w3.org/1999/xlink">
    <title>head_fox</title>
    <g id="📱Application-iOS" stroke="none" stroke-width="1" fill="none" fill-rule="evenodd">
        <g id="Exports" transform="translate(-418, -592)">
            <g id="head_fox" transform="translate(451.5, 631.5) rotate(-4) translate(-451.5, -631.5)translate(422, 594)">
                <g id="Group" transform="translate(-0, -0)">
                    <g id="Bitmap-Copy" transform="translate(-0, 0)">
                        <g id="Group-7" transform="translate(0, -0)">
                            <g id="Group-2" transform="translate(-0, -0)">
                                <g id="Group" transform="translate(0, -0)" fill="#EA703A" stroke="#EA703A" stroke-linecap="square" stroke-width="1.42380564">
                                    <path d="M42.2585,8.49973416 C40.3794494,13.2575565 39.8916611,17.0197896 40.7951351,19.7864333 C41.7951237,22.8486269 46.5149914,24.6784374 50.5163921,26.1074226 C52.292912,26.7418556 54.4061416,27.0515521 56.8560808,27.0365121 L56.8560808,27.036519 C57.4458253,27.0322934 57.9273332,27.5069502 57.9315588,28.0966947 C57.9333246,28.3431366 57.8497943,28.5826035 57.6951348,28.7744816 C57.0888525,29.529351 56.4282973,30.2337072 55.7140867,30.8880479 C55.474915,31.1071707 55.1279757,31.3697509 54.673269,31.6757885 L54.6725724,31.6747531 C53.0534063,32.7640824 51.2176986,33.4901502 49.2914613,33.8031155 C38.610173,35.5380077 30.2790773,39.8010661 24.2981244,46.5919853 C18.2778314,53.4275722 15.2621731,62.1756938 15.2511497,72.83635 L15.2511416,72.83635 C15.2487552,73.4261047 14.7687299,73.9022608 14.1789751,73.8998744 C13.938075,73.8988996 13.7045821,73.816498 13.5164301,73.6660567 C5.3171958,67.1523753 0.837445731,58.4653287 0.0769007428,47.6052659 C-0.710445658,36.3624972 4.5481283,26.6527184 15.8526226,18.4759294 L15.8542768,18.4782176 C16.5961186,17.9419107 17.192135,17.2286747 17.5881317,16.4033621 C19.2226157,12.9962454 21.0215501,10.2769439 22.9854941,8.2457261 C25.7566102,5.3796871 29.0870344,3.02428581 32.9767668,1.17952225 L32.9763522,1.17864371 C33.5097058,0.926948739 34.1461134,1.15527815 34.3978084,1.68863173 C34.5374909,1.98462563 34.5337185,2.32832951 34.387573,2.62118627 C32.8467045,5.71804181 31.9816998,7.71141818 31.7927872,8.60142926 C31.5550648,9.72139404 31.4117756,11.4239806 31.3629194,13.709189 C33.5478499,11.5275084 35.2183177,9.9901828 36.374323,9.09721216 C37.2610829,8.41222345 38.7880227,7.74222801 40.9551426,7.08722584 L40.9552098,7.08744726 C41.5195566,6.91618994 42.1158816,7.23485193 42.2871389,7.79919875 C42.3569609,8.02928437 42.3470875,8.2762007 42.2591168,8.49997666 Z" id="Line"></path>
                                </g>
                                <path d="M40.3247908,29.476496 C33.6565276,27.8328956 30.029155,27.0721199 27.0920215,26.9612163 C18.2633634,26.6277824 12.0592821,34.3032896 8.46853386,43.2131741 C3.61290243,55.2619059 12.3948491,70.3653707 13.4139197,65.8838231 C14.4329903,61.4022756 14.9427542,51.1846895 25.3128527,41.4565474 C34.1989382,33.1204876 47.8516449,32.5340196 49.0351064,31.1191827 C49.4923136,30.5725882 42.1830441,29.9345202 40.3247908,29.476496 Z" id="Fill-46" fill="#FEFEFE"></path>
                            </g>
                        </g>
                    </g>
                </g>
            </g>
        </g>
    </g>
</svg>