<?xml version="1.0" encoding="UTF-8"?>
<svg width="25px" height="25px" viewBox="0 0 25 25" version="1.1" xmlns="http://www.w3.org/2000/svg" xmlns:xlink="http://www.w3.org/1999/xlink">
    <title>ranked_selected</title>
    <g id="📱Application-iOS" stroke="none" stroke-width="1" fill="none" fill-rule="evenodd">
        <g id="Exports" transform="translate(-167, -1140)" fill="#FFFFFF" fill-rule="nonzero">
            <g id="ranked_selected" transform="translate(167, 1140)">
                <path d="M12.5,11.1111111 C13.2638889,11.1111111 13.9178241,10.8391204 14.4618056,10.2951389 C15.005787,9.75115741 15.2777778,9.09722222 15.2777778,8.33333333 C15.2777778,7.56944444 15.005787,6.91550926 14.4618056,6.37152778 C13.9178241,5.8275463 13.2638889,5.55555556 12.5,5.55555556 C11.7361111,5.55555556 11.0821759,5.8275463 10.5381944,6.37152778 C9.99421296,6.91550926 9.72222222,7.56944444 9.72222222,8.33333333 C9.72222222,9.09722222 9.99421296,9.75115741 10.5381944,10.2951389 C11.0821759,10.8391204 11.7361111,11.1111111 12.5,11.1111111 Z M5.55555556,10.8333333 L5.55555556,5.55555556 L2.77777778,5.55555556 L2.77777778,6.94444444 C2.77777778,7.82407407 3.03240741,8.61689815 3.54166667,9.32291667 C4.05092593,10.0289352 4.72222222,10.5324074 5.55555556,10.8333333 Z M19.4444444,10.8333333 C20.2777778,10.5324074 20.9490741,10.0289352 21.4583333,9.32291667 C21.9675926,8.61689815 22.2222222,7.82407407 22.2222222,6.94444444 L22.2222222,5.55555556 L19.4444444,5.55555556 L19.4444444,10.8333333 Z M11.1111111,22.2222222 L11.1111111,17.9166667 C9.97685185,17.662037 8.96412037,17.181713 8.07291667,16.4756944 C7.18171296,15.7696759 6.52777778,14.8842593 6.11111111,13.8194444 C4.375,13.6111111 2.9224537,12.8530093 1.75347222,11.5451389 C0.584490741,10.2372685 0,8.7037037 0,6.94444444 L0,5.55555556 C0,4.79166667 0.271990741,4.13773148 0.815972222,3.59375 C1.3599537,3.04976852 2.01388889,2.77777778 2.77777778,2.77777778 L5.55555556,2.77777778 C5.55555556,2.01388889 5.8275463,1.3599537 6.37152778,0.815972222 C6.91550926,0.271990741 7.56944444,0 8.33333333,0 L16.6666667,0 C17.4305556,0 18.0844907,0.271990741 18.6284722,0.815972222 C19.1724537,1.3599537 19.4444444,2.01388889 19.4444444,2.77777778 L22.2222222,2.77777778 C22.9861111,2.77777778 23.6400463,3.04976852 24.1840278,3.59375 C24.7280093,4.13773148 25,4.79166667 25,5.55555556 L25,6.94444444 C25,8.7037037 24.4155093,10.2372685 23.2465278,11.5451389 C22.0775463,12.8530093 20.625,13.6111111 18.8888889,13.8194444 C18.4722222,14.8842593 17.818287,15.7696759 16.9270833,16.4756944 C16.0358796,17.181713 15.0231481,17.662037 13.8888889,17.9166667 L13.8888889,22.2222222 L18.0555556,22.2222222 C18.4490741,22.2222222 18.7789352,22.3553241 19.0451389,22.6215278 C19.3113426,22.8877315 19.4444444,23.2175926 19.4444444,23.6111111 C19.4444444,24.0046296 19.3113426,24.3344907 19.0451389,24.6006944 C18.7789352,24.8668981 18.4490741,25 18.0555556,25 L6.94444444,25 C6.55092593,25 6.22106481,24.8668981 5.95486111,24.6006944 C5.68865741,24.3344907 5.55555556,24.0046296 5.55555556,23.6111111 C5.55555556,23.2175926 5.68865741,22.8877315 5.95486111,22.6215278 C6.22106481,22.3553241 6.55092593,22.2222222 6.94444444,22.2222222 L11.1111111,22.2222222 Z" id="Shape"></path>
            </g>
        </g>
    </g>
</svg>