<?xml version="1.0" encoding="UTF-8"?>
<svg width="16px" height="18px" viewBox="0 0 16 18" version="1.1" xmlns="http://www.w3.org/2000/svg" xmlns:xlink="http://www.w3.org/1999/xlink">
    <title>share</title>
    <g id="📱Application-iOS" stroke="none" stroke-width="1" fill="none" fill-rule="evenodd">
        <g id="Exports" transform="translate(-224, -948)" fill="#FFFFFF" fill-rule="nonzero">
            <g id="share" transform="translate(224, 948)">
                <path d="M13.3333333,18 C12.5925926,18 11.962963,17.7375 11.4444444,17.2125 C10.9259259,16.6875 10.6666667,16.05 10.6666667,15.3 C10.6666667,15.195 10.6740741,15.08625 10.6888889,14.97375 C10.7037037,14.86125 10.7259259,14.76 10.7555556,14.67 L4.48888889,10.98 C4.23703704,11.205 3.95555556,11.38125 3.64444444,11.50875 C3.33333333,11.63625 3.00740741,11.7 2.66666667,11.7 C1.92592593,11.7 1.2962963,11.4375 0.777777778,10.9125 C0.259259259,10.3875 0,9.75 0,9 C0,8.25 0.259259259,7.6125 0.777777778,7.0875 C1.2962963,6.5625 1.92592593,6.3 2.66666667,6.3 C3.00740741,6.3 3.33333333,6.36375 3.64444444,6.49125 C3.95555556,6.61875 4.23703704,6.795 4.48888889,7.02 L10.7555556,3.33 C10.7259259,3.24 10.7037037,3.13875 10.6888889,3.02625 C10.6740741,2.91375 10.6666667,2.805 10.6666667,2.7 C10.6666667,1.95 10.9259259,1.3125 11.4444444,0.7875 C11.962963,0.2625 12.5925926,0 13.3333333,0 C14.0740741,0 14.7037037,0.2625 15.2222222,0.7875 C15.7407407,1.3125 16,1.95 16,2.7 C16,3.45 15.7407407,4.0875 15.2222222,4.6125 C14.7037037,5.1375 14.0740741,5.4 13.3333333,5.4 C12.9925926,5.4 12.6666667,5.33625 12.3555556,5.20875 C12.0444444,5.08125 11.762963,4.905 11.5111111,4.68 L5.24444444,8.37 C5.27407407,8.46 5.2962963,8.56125 5.31111111,8.67375 C5.32592593,8.78625 5.33333333,8.895 5.33333333,9 C5.33333333,9.105 5.32592593,9.21375 5.31111111,9.32625 C5.2962963,9.43875 5.27407407,9.54 5.24444444,9.63 L11.5111111,13.32 C11.762963,13.095 12.0444444,12.91875 12.3555556,12.79125 C12.6666667,12.66375 12.9925926,12.6 13.3333333,12.6 C14.0740741,12.6 14.7037037,12.8625 15.2222222,13.3875 C15.7407407,13.9125 16,14.55 16,15.3 C16,16.05 15.7407407,16.6875 15.2222222,17.2125 C14.7037037,17.7375 14.0740741,18 13.3333333,18 Z" id="Path"></path>
            </g>
        </g>
    </g>
</svg>